<?xml version="1.0" encoding="UTF-8"?>
<svg version="1.1" xmlns="http://www.w3.org/2000/svg" width="1024" height="1024">
<path d="M0 0 C337.92 0 675.84 0 1024 0 C1024 337.92 1024 675.84 1024 1024 C686.08 1024 348.16 1024 0 1024 C0 686.08 0 348.16 0 0 Z " fill="#FEFEFE" transform="translate(0,0)"/>
<path d="M0 0 C6.98713048 -0.06177037 13.97423755 -0.11002873 20.96155739 -0.14443207 C24.84038338 -0.16373897 28.71891347 -0.188996 32.59756947 -0.23065567 C36.8152861 -0.27543155 41.032488 -0.28791014 45.25043201 -0.29700089 C47.03494267 -0.32318748 47.03494267 -0.32318748 48.85550404 -0.34990311 C61.60956391 -0.31706946 73.14451738 3.04981085 82.55902576 11.87096786 C91.14160519 21.02318752 96.21116285 32.96251399 101.32465076 44.25378036 C102.41960156 46.65285887 103.51593228 49.05130809 104.61371326 51.44909286 C105.13094959 52.58121201 105.64818592 53.71333115 106.18109608 54.87975693 C107.97288772 58.71338444 109.87377464 62.48176707 111.83002186 66.23376083 C112.69965076 68.12878036 112.69965076 68.12878036 112.69965076 70.12878036 C113.80888905 70.11306992 114.91812733 70.09735947 116.06097889 70.08117294 C120.20576079 70.02656609 124.35051134 69.99231919 128.4955492 69.96398544 C130.28401519 69.94896853 132.0724448 69.92854878 133.86078358 69.90246201 C136.44258107 69.86576422 139.02388856 69.84898291 141.60590076 69.83581161 C142.79077076 69.81258583 142.79077076 69.81258583 143.99957752 69.78889084 C150.74684384 69.78687964 156.54882603 71.25832448 162.01215076 75.44128036 C165.87305582 79.30218543 167.82465254 82.6600691 168.07465076 88.12878036 C167.81829632 93.5224778 165.74499425 97.35094662 162.01215076 101.19128036 C155.25142394 106.68981141 144.22810046 109.58114743 135.69965076 109.12878036 C136.13535389 109.61346786 136.57105701 110.09815536 137.01996326 110.59753036 C148.87424567 123.94001273 155.99458675 136.34609324 156.00604725 154.50500107 C156.01437077 155.63112808 156.02269428 156.7572551 156.03127003 157.91750717 C156.05531008 161.62989411 156.06413472 165.34210516 156.07074451 169.05456161 C156.07971498 171.6437701 156.08883691 174.23297807 156.09810352 176.82218552 C156.11457952 182.24658441 156.12232396 187.67091285 156.12518787 193.0953331 C156.12882065 199.34447179 156.15870765 205.59311864 156.20059246 211.84210712 C156.23960988 217.87720911 156.25078317 223.91204049 156.25191402 229.94728279 C156.25611015 232.50405355 156.2685198 235.06082497 156.28943157 237.61751366 C156.3164047 241.20023226 156.31150146 244.78160644 156.299016 248.36437607 C156.32126743 249.93500557 156.32126743 249.93500557 156.34396839 251.53736496 C156.26281183 259.75045946 154.12432151 266.51899228 148.38715076 272.56628036 C141.80196545 276.39487648 136.15374368 277.58499939 128.66840076 277.52721786 C127.83304798 277.53008804 126.9976952 277.53295822 126.13702869 277.53591537 C124.38234238 277.53794408 122.62763282 277.53249837 120.87299061 277.51989365 C118.2066171 277.50382235 115.54175909 277.51978267 112.87543201 277.53893661 C111.16058496 277.53695397 109.44573884 277.53310986 107.73090076 277.52721786 C106.94421009 277.53329056 106.15751942 277.53936325 105.34698963 277.54561996 C98.66511732 277.46186018 93.12309219 276.17524202 87.88715076 271.75378036 C78.33869364 260.29563182 81.69965076 252.07676869 81.69965076 235.12878036 C4.14965076 235.12878036 -73.40034924 235.12878036 -153.30034924 235.12878036 C-153.30034924 243.04878036 -153.30034924 250.96878036 -153.30034924 259.12878036 C-156.28821334 268.09237268 -158.12967049 271.9386887 -166.30034924 276.12878036 C-170.47628916 277.37195834 -174.61730052 277.30914521 -178.94097424 277.33190536 C-179.78198681 277.33760544 -180.62299938 277.34330551 -181.48949718 277.34917831 C-183.26806925 277.35861229 -185.04665868 277.36515592 -186.82525158 277.36901474 C-189.52690225 277.37869634 -192.22778397 277.40972457 -194.92925549 277.44128036 C-196.66232391 277.44781359 -198.39539775 277.45306281 -200.12847424 277.45690536 C-200.92771313 277.46925217 -201.72695202 277.48159897 -202.55041027 277.49431992 C-210.09823201 277.46479831 -216.80887193 275.62025767 -222.30034924 270.12878036 C-225.85709687 264.98591554 -227.41880462 260.51065576 -227.44079113 254.31124496 C-227.44650127 253.34415604 -227.45221142 252.37706711 -227.4580946 251.38067245 C-227.45921246 250.32607834 -227.46033031 249.27148422 -227.46148205 248.18493271 C-227.46644695 247.06899734 -227.47141186 245.95306198 -227.47652721 244.80331039 C-227.49114536 241.10710662 -227.49795116 237.41094581 -227.50347424 233.71471786 C-227.50922704 231.14364241 -227.51498476 228.57256698 -227.52074718 226.00149155 C-227.52991373 221.29579295 -227.53621369 216.59011148 -227.53924394 211.88440549 C-227.54371647 204.97829737 -227.56122858 198.07238797 -227.59024453 191.16634023 C-227.61455882 185.16918427 -227.62219285 179.17212151 -227.62391949 173.1749115 C-227.62693936 170.63211233 -227.63494533 168.08931385 -227.64810467 165.54654694 C-227.66523839 161.98054522 -227.66326647 158.41502186 -227.65679455 154.84899521 C-227.66600933 153.80654648 -227.67522411 152.76409775 -227.68471813 151.69005966 C-227.59018496 134.98709119 -219.86941527 122.6978464 -208.30034924 111.12878036 C-210.00191174 110.76526474 -210.00191174 110.76526474 -211.73784924 110.39440536 C-232.05532873 105.93221835 -232.05532873 105.93221835 -237.39019299 97.81237411 C-239.58532135 93.75185769 -240.01505032 89.63380629 -239.30034924 85.12878036 C-236.68101134 79.11843241 -232.7861478 74.82698992 -226.86284924 71.94128036 C-221.41657196 70.21441196 -215.95195135 69.94544362 -210.27691174 69.81237411 C-209.53073589 69.79159302 -208.78456005 69.77081192 -208.01577282 69.74940109 C-205.65238415 69.68446807 -203.2888926 69.62528466 -200.92534924 69.56628036 C-199.31466188 69.52304152 -197.7039846 69.47942559 -196.09331799 69.43542099 C-192.16243152 69.3288451 -188.23144246 69.22742245 -184.30034924 69.12878036 C-183.9181422 68.33407333 -183.53593517 67.5393663 -183.14214611 66.72057724 C-179.75608413 59.68359886 -176.36312796 52.65002103 -172.95878124 45.62186813 C-171.24417102 42.08185009 -169.53696092 38.53841556 -167.83550549 34.99206161 C-160.9340473 20.72915755 -153.66109808 9.00075638 -138.30034924 3.12878036 C-131.83591136 1.30252366 -125.67992155 0.82567624 -118.98809338 0.80993271 C-117.49447387 0.79488552 -117.49447387 0.79488552 -115.97068024 0.77953434 C-112.67562762 0.74872673 -109.38065629 0.73164913 -106.08550549 0.71471786 C-103.74220675 0.69571179 -101.39891441 0.6759037 -99.05562878 0.65534592 C-92.78676942 0.60307168 -86.51789324 0.56320542 -80.2489233 0.52687836 C-76.36595233 0.50379881 -72.48300939 0.47799099 -68.60006237 0.45119858 C-55.66393869 0.36194901 -42.7278055 0.28167792 -29.79156017 0.21227646 C-19.86084548 0.1588883 -9.93046002 0.088575 0 0 Z " fill="#267CC2" transform="translate(538.3003492355347,283.87121963500977)"/>
<path d="M0 0 C0.90989685 -0.00067474 1.8197937 -0.00134949 2.75726318 -0.00204468 C81.9021597 0.09087489 158.0190787 34.02567157 217.01757812 85.91113281 C219.40241646 87.97789221 221.85717932 89.95541152 224.3125 91.9375 C228.74583669 95.53755167 233.00763346 99.28903487 237.23046875 103.1328125 C239.32073889 105.03051169 241.43236115 106.89733415 243.5625 108.75 C247.37415518 112.0698287 251.12801705 115.45121138 254.875 118.84375 C256.9899167 120.73733821 259.12054241 122.6064977 261.26342773 124.46801758 C276.07563336 137.42825141 289.9205725 151.4474417 303.81567383 165.37280273 C306.50527115 168.06820018 309.19947671 170.75894064 311.89492702 173.44848347 C313.99249229 175.54244395 316.08768151 177.63876878 318.18214607 179.73583031 C319.17616571 180.73051414 320.17092075 181.72446365 321.16644096 182.71764565 C322.54363596 184.09230439 323.91728958 185.47050829 325.29077148 186.84887695 C326.07000473 187.62890579 326.84923798 188.40893463 327.65208435 189.21260071 C330.43194203 192.17723307 331.5232075 193.69008191 331.8125 197.8125 C331.5625 201.25 331.5625 201.25 329.5625 203.25 C313.2146328 204.82681556 295.91258078 202.33778738 279.5625 201.25 C280.12517578 202.90708984 280.12517578 202.90708984 280.69921875 204.59765625 C295.98322851 250.61046405 300.72130401 303.30877964 292.5625 351.25 C292.36382324 352.42498047 292.16514648 353.59996094 291.96044922 354.81054688 C285.28777644 393.05720762 272.35475039 428.75741105 254.61914062 463.19433594 C253.89184101 464.6092765 253.16946088 466.02675306 252.45117188 467.44628906 C235.22145482 501.48299746 213.04561418 533.88594998 188.99902344 563.46630859 C187.11180532 565.80961512 185.26722911 568.1846409 183.42260742 570.56152344 C177.84885036 577.73707282 172.01774954 584.65387878 166.06103516 591.51318359 C164.59425401 593.21319681 163.14417584 594.92594935 161.69921875 596.64453125 C154.82363049 604.80082052 147.61443025 612.58919957 140.26953125 620.32421875 C137.31262884 623.44195997 134.41805764 626.6018471 131.5625 629.8125 C128.39404821 633.37249051 125.10989984 636.76206327 121.6796875 640.0703125 C119.9383991 641.86300425 118.34070114 643.68221239 116.7265625 645.5859375 C110.27472612 653.01267227 103.08446995 659.78040719 96.09619141 666.69580078 C86.89296305 675.76750815 86.89296305 675.76750815 78.23632812 685.35351562 C73.75286823 690.43337508 68.76975804 695.07568611 63.9453125 699.828125 C59.55948431 704.17396083 55.35020818 708.57150779 51.33203125 713.2578125 C47.20258107 717.90686238 42.66628944 722.18150904 38.234375 726.5390625 C34.10500351 730.62629755 30.16158715 734.78493571 26.37158203 739.1875 C22.87951451 743.16873973 19.19879765 746.96174019 15.5 750.75 C14.72333984 751.57242188 13.94667969 752.39484375 13.14648438 753.2421875 C12.38529297 754.01820313 11.62410156 754.79421875 10.83984375 755.59375 C10.16171631 756.29693359 9.48358887 757.00011719 8.78491211 757.72460938 C5.87994258 759.71848498 4.0156055 759.62158161 0.5625 759.25 C-1.30859375 758 -1.30859375 758 -2.875 756.25 C-3.38933594 755.693125 -3.90367187 755.13625 -4.43359375 754.5625 C-5.60927828 753.20576464 -6.78480627 751.84889356 -7.95996094 750.49169922 C-12.14184453 745.68405932 -16.43536609 741.0049668 -20.8125 736.375 C-22.12268374 734.9755299 -23.43258008 733.57579068 -24.7421875 732.17578125 C-26.95375891 729.81628054 -29.18232813 727.47813085 -31.4453125 725.16796875 C-32.26773438 724.30816406 -33.09015625 723.44835937 -33.9375 722.5625 C-34.6490625 721.83675781 -35.360625 721.11101563 -36.09375 720.36328125 C-37.4375 718.25 -37.4375 718.25 -37.3828125 715.6796875 C-36.2683843 712.81533072 -35.28333507 711.86241543 -32.8125 710.0625 C-31.99394531 709.46308594 -31.17539062 708.86367188 -30.33203125 708.24609375 C-26.44655139 705.56663328 -22.5180187 702.95480155 -18.57714844 700.35791016 C0.68861606 687.61031709 18.95020607 673.35911493 36.7890625 658.703125 C38.4057593 657.37843071 40.03058288 656.0636704 41.65625 654.75 C46.99735895 650.42910287 52.17122462 645.9741032 57.25 641.34765625 C59.22634372 639.55492554 61.2270673 637.80204773 63.25 636.0625 C75.85144333 625.0405787 87.72705791 613.24584294 99.54492188 601.39794922 C102.0834885 598.85396672 104.6274333 596.31544872 107.171875 593.77734375 C108.81282112 592.1357376 110.45345744 590.49382169 112.09375 588.8515625 C113.2157782 587.73257065 113.2157782 587.73257065 114.36047363 586.5909729 C118.41728908 582.51619323 122.31092906 578.35436186 126.05813599 573.99247742 C128.2862162 571.41173272 130.61363198 568.93234329 132.9375 566.4375 C137.2312538 561.78961458 141.2978184 557.00583652 145.265625 552.07421875 C147.28790221 549.5876432 149.35425688 547.14695918 151.44482422 544.71777344 C204.25794785 483.21245059 244.05750814 408.38671673 253.5625 327.25 C253.665625 326.44473877 253.76875 325.63947754 253.875 324.80981445 C254.81577046 316.79562606 254.80516198 308.74572163 254.8125 300.6875 C254.81350708 299.91710388 254.81451416 299.14670776 254.81555176 298.35296631 C254.80335192 284.47134442 253.78500718 270.96583903 251.5625 257.25 C251.42328125 256.33621582 251.2840625 255.42243164 251.140625 254.48095703 C247.94138487 231.92127858 247.94138487 231.92127858 237.5625 212.25 C230.33129304 217.83275552 223.18144066 223.48455963 216.25 229.4375 C215.66581299 229.93701172 215.08162598 230.43652344 214.47973633 230.95117188 C211.8977127 233.17406249 209.38511589 235.42080458 206.9296875 237.78515625 C201.43712152 243.06360525 201.43712152 243.06360525 196.75 244.0625 C192.62808598 243.01181603 191.81700879 241.8246639 189.5625 238.25 C188.95086204 235.33385628 188.5493861 232.67987267 188.2890625 229.734375 C188.20019272 228.89867477 188.11132294 228.06297455 188.01976013 227.20195007 C187.82901896 225.40501316 187.64517358 223.60733342 187.46755981 221.80905151 C186.99218826 217.04098733 186.45282081 212.28034047 185.91015625 207.51953125 C185.74685066 206.08160973 185.74685066 206.08160973 185.58024597 204.61463928 C180.7911325 163.42107986 174.58689814 117.13508669 140.56054688 89.63183594 C111.85829064 67.49518655 77.84546581 55.02521799 42.5625 48.25 C41.7365332 48.08338867 40.91056641 47.91677734 40.05957031 47.74511719 C16.48235993 43.10272313 -9.75004553 43.64279862 -33.4375 47.25 C-34.69965332 47.4353833 -34.69965332 47.4353833 -35.98730469 47.62451172 C-98.81004392 57.13437591 -157.98099454 90.11153028 -197.4375 140.25 C-198.32057744 141.34328646 -199.20473606 142.4357003 -200.08984375 143.52734375 C-211.39200367 157.55527175 -220.58457077 172.58341354 -229.4375 188.25 C-229.96351807 187.8480542 -230.48953613 187.4461084 -231.03149414 187.03198242 C-242.56968877 178.28338686 -253.11954388 174.30926611 -267.4375 172.25 C-255.2583414 145.12505911 -238.95083605 120.50905018 -218.70703125 98.703125 C-216.71280546 96.54757629 -214.78466597 94.35513865 -212.875 92.125 C-206.60822546 84.93144894 -199.73872905 78.37928218 -192.4375 72.25 C-191.93492676 71.81768066 -191.43235352 71.38536133 -190.91455078 70.93994141 C-173.71267359 56.18058184 -154.61629791 43.56445012 -134.4375 33.25 C-133.76799316 32.90565918 -133.09848633 32.56131836 -132.40869141 32.20654297 C-100.45399316 15.97742956 -64.93814201 5.66419191 -29.4375 1.25 C-28.73939209 1.15428711 -28.04128418 1.05857422 -27.32202148 0.95996094 C-18.26258265 -0.13815286 -9.11160295 0.00606823 0 0 Z " fill="#2D89C9" transform="translate(503.4375,64.75)"/>
<path d="M0 0 C1.83084302 -0.00514493 3.66168107 -0.01243052 5.49250793 -0.02168274 C10.44083041 -0.04012923 15.3886111 -0.02730195 20.33691072 -0.00759244 C25.52615727 0.00884629 30.71537091 -0.00002586 35.90463257 -0.00511169 C44.61505749 -0.00962601 53.32526721 0.00619814 62.03564453 0.03417969 C72.0957534 0.06624864 82.15547465 0.06620584 92.2156111 0.04896492 C101.90979521 0.03308555 111.60383766 0.03984119 121.29801559 0.05690193 C125.41666832 0.06376153 129.53520711 0.06275124 133.65385818 0.05535698 C138.50497234 0.04767937 143.35564677 0.05986846 148.20668602 0.08720589 C149.98358416 0.09407455 151.7605235 0.09420402 153.53742027 0.08699036 C155.96933115 0.07825724 158.39989673 0.09431506 160.83169556 0.11643982 C161.52917896 0.10819905 162.22666236 0.09995829 162.94528162 0.0914678 C168.8916332 0.19082922 174.21765384 2.05394307 178.47747099 6.26333994 C183.87952983 12.66545198 186.98895742 20.94811211 190.45068359 28.50610352 C191.15043157 30.01687839 191.8509609 31.52729159 192.55224609 33.03735352 C193.96783995 36.0893846 195.37798568 39.14384201 196.78369141 42.20043945 C198.68551557 46.33322805 200.60836824 50.4559087 202.53662109 54.57641602 C203.63385254 56.92757058 204.72975822 59.27933953 205.82568359 61.63110352 C206.33566895 62.72148926 206.8456543 63.811875 207.37109375 64.93530273 C207.8304834 65.92804199 208.28987305 66.92078125 208.76318359 67.94360352 C209.16408203 68.80598633 209.56498047 69.66836914 209.97802734 70.55688477 C210.82568359 72.63110352 210.82568359 72.63110352 210.82568359 74.63110352 C120.73568359 74.63110352 30.64568359 74.63110352 -62.17431641 74.63110352 C-52.96617878 53.91279385 -52.96617878 53.91279385 -49.85009766 47.34985352 C-49.49594284 46.59998169 -49.14178802 45.85010986 -48.77690125 45.07751465 C-48.0463422 43.53176164 -47.31481568 41.98646547 -46.58227539 40.44165039 C-45.47440527 38.10492589 -44.37004188 35.7665673 -43.26611328 33.42797852 C-30.30676293 6.01231958 -30.30676293 6.01231958 -21.4349556 1.70939827 C-14.54446312 -0.56929049 -7.18203863 -0.05140276 0 0 Z " fill="#FEFEFE" transform="translate(428.17431640625,304.368896484375)"/>
<path d="M0 0 C0.89203125 0.34933594 1.7840625 0.69867188 2.703125 1.05859375 C4.45882812 1.74115234 4.45882812 1.74115234 6.25 2.4375 C7.41015625 2.88996094 8.5703125 3.34242188 9.765625 3.80859375 C14.11376121 5.41026228 17.5606503 6.12464738 22.203125 6.09765625 C23.1828125 6.09443359 24.1625 6.09121094 25.171875 6.08789062 C26.18765625 6.07951172 27.2034375 6.07113281 28.25 6.0625 C29.28125 6.05798828 30.3125 6.05347656 31.375 6.04882812 C33.91672573 6.03706088 36.45833319 6.02062011 39 6 C38.97643433 7.84053955 38.97643433 7.84053955 38.95239258 9.71826172 C38.59165313 40.65728837 39.44859108 69.82698381 47 100 C47.20963379 100.85303711 47.41926758 101.70607422 47.63525391 102.58496094 C59.37192574 149.44129667 84.03018756 195.23934483 113.62695312 233.22998047 C114.94948496 234.93488014 116.25136783 236.653416 117.546875 238.37890625 C132.15090762 257.76228275 148.85083015 275.85083015 166 293 C165.80403644 295.60578578 165.23874862 296.7511801 163.42578125 298.640625 C142.31808229 314.71524972 142.31808229 314.71524972 131.98828125 315.1171875 C127.60646436 313.47901805 125.22814704 310.59317228 122.1875 307.125 C121.57438965 306.44679199 120.9612793 305.76858398 120.32958984 305.06982422 C116.06947665 300.32130468 111.98150234 295.44904061 108 290.46484375 C106.10848971 288.13370509 104.14517675 285.90725066 102.125 283.6875 C96.76627606 277.70762731 91.88850643 271.36346094 87 265 C86.15840332 263.91114502 86.15840332 263.91114502 85.29980469 262.80029297 C29.0874611 189.8849413 -11.44092933 97.96836395 -1 4 C-0.69795804 2.65923173 -0.37796071 1.32137602 0 0 Z " fill="#1E67B6" transform="translate(209,339)"/>
<path d="M0 0 C9.38014368 6.68830667 16.41261231 15.62349305 18.87109375 27.0078125 C20.64400538 38.87099893 17.9011766 49.79166689 11.140625 59.6484375 C4.50511624 68.0622626 -3.50861768 72.57345907 -13.8125 75.125 C-25.86622751 76.25668184 -36.37504522 74.66898255 -45.90234375 66.8828125 C-54.35156905 59.10745179 -60.34819568 50.87355407 -61.05078125 39.1484375 C-61.37878508 25.48553377 -59.23714643 16.48415778 -49.8125 6.125 C-36.52977265 -7.36808729 -16.13162647 -10.31148447 0 0 Z " fill="#2278C1" transform="translate(509.8125,588.875)"/>
<path d="M0 0 C2.28405966 1.45526118 4.381334 3.00083158 6.48046875 4.7109375 C7.42019531 5.46503906 7.42019531 5.46503906 8.37890625 6.234375 C14.86399292 12.03980193 20.10062595 21.33709587 20.71875 30.08203125 C21.04913359 42.0513991 19.51185751 52.26587599 11.4453125 61.6796875 C2.65272907 70.76943577 -6.88107152 74.74072616 -19.58203125 75.2734375 C-30.50746048 74.90885143 -39.03859464 70.52319764 -46.51953125 62.7109375 C-47.00035156 62.2159375 -47.48117188 61.7209375 -47.9765625 61.2109375 C-56.84578468 51.35029169 -57.19482173 40.55160811 -56.69433594 27.9453125 C-55.9658257 18.63340513 -50.11100042 10.7374252 -43.265625 4.734375 C-30.30406994 -5.04400522 -14.72987539 -7.53621532 0 0 Z " fill="#2173BE" transform="translate(254.51953125,256.2890625)"/>
<path d="M0 0 C10.85999134 5.89542387 17.19652721 14.12972074 21.57421875 25.51171875 C23.69611154 36.12118269 22.44549184 46.04635918 17.0390625 55.51171875 C10.57374109 64.73245569 1.56257326 72.1210798 -9.67578125 74.26171875 C-22.59416673 75.13149967 -32.26906019 73.82698642 -42.5703125 65.3125 C-50.27923866 57.80380569 -54.93564043 48.92958342 -55.29663086 38.15698242 C-55.31713328 25.70718606 -52.93970523 16.66764129 -44.30078125 7.19921875 C-40.52838722 3.8346511 -36.23206093 1.41105916 -31.67578125 -0.73828125 C-30.56976563 -1.28935547 -30.56976563 -1.28935547 -29.44140625 -1.8515625 C-20.4583268 -4.73173063 -8.53164031 -3.72361024 0 0 Z " fill="#2A88C9" transform="translate(526.67578125,160.73828125)"/>
<path d="M0 0 C2.625 1.5625 2.625 1.5625 4 4 C4.125 7.5 4.125 7.5 3 11 C-1.51509488 14.58185591 -6.35993203 16.49749528 -11.73828125 18.4609375 C-12.57731491 18.77398834 -13.41634857 19.08703918 -14.2808075 19.40957642 C-16.95541415 20.40529248 -19.63388014 21.3901386 -22.3125 22.375 C-24.06861111 23.02796922 -25.82447278 23.68160968 -27.58007812 24.3359375 C-35.31992855 27.21292346 -43.07370281 30.04066879 -50.87109375 32.7578125 C-63.53746297 37.18401014 -76.07191518 41.98062768 -88.63006592 46.70303726 C-91.48555309 47.776522 -94.34151543 48.84873948 -97.19747162 49.92097569 C-115.62027514 56.83786391 -134.03691458 63.77113047 -152.43527222 70.75282288 C-154.26206745 71.44546226 -156.08974549 72.13577198 -157.91748047 72.82592773 C-159.80192314 73.54367562 -161.68231985 74.27231512 -163.55517578 75.01977539 C-168.17489775 76.84900822 -171.11463864 77.27019395 -176 76 C-178 74 -178 74 -178.4375 70.6875 C-177.87884784 65.97886034 -176.58399539 65.01547276 -173 62 C-170.56012187 60.80959291 -168.28688148 59.83547442 -165.75 58.92578125 C-165.01391006 58.64894501 -164.27782013 58.37210876 -163.51942444 58.08688354 C-161.01751197 57.14932935 -158.5088549 56.23129933 -156 55.3125 C-154.17192552 54.63135586 -152.34438855 53.94876774 -150.51733398 53.26489258 C-146.37562786 51.71635861 -142.23126031 50.17520364 -138.08544922 48.63769531 C-130.26603084 45.73276722 -122.46273258 42.78571783 -114.66015625 39.8359375 C-111.75760727 38.73899208 -108.85500662 37.6421834 -105.95239258 36.54541016 C-105.22270484 36.26967855 -104.4930171 35.99394695 -103.74121761 35.70985985 C-77.78992721 25.90519718 -51.81263945 16.17100602 -25.80297852 6.5222168 C-24.80441833 6.15138977 -23.80585815 5.78056274 -22.77703857 5.39849854 C-20.93199572 4.71344516 -19.08660024 4.02934048 -17.24078369 3.34637451 C-16.43985291 3.04894348 -15.63892212 2.75151245 -14.8137207 2.44506836 C-14.12027054 2.18817734 -13.42682037 1.93128632 -12.71235657 1.66661072 C-8.24357892 -0.07305912 -4.87007777 -0.60444228 0 0 Z " fill="#247CC3" transform="translate(462,210)"/>
<path d="M0 0 C3.30460168 2.56275232 4.68312801 4.04938402 6 8 C8.09272989 27.95144987 8.09272989 27.95144987 3.1875 34.0625 C-4.9163157 40.35394585 -14.04240267 41.60892949 -24.01953125 41.53125 C-25.12173508 41.5350769 -26.2239389 41.53890381 -27.35954285 41.54284668 C-29.66963627 41.54554935 -31.97976116 41.53830462 -34.28979492 41.52148438 C-37.82084004 41.49994914 -41.34987442 41.52139644 -44.88085938 41.546875 C-47.13542114 41.54423344 -49.38998165 41.53911203 -51.64453125 41.53125 C-53.2196624 41.54339539 -53.2196624 41.54339539 -54.82661438 41.55578613 C-60.85234253 41.47866076 -64.439774 41.0674653 -69 37 C-71 34 -71 34 -71 30.8125 C-68.80015995 22.42560982 -62.29897712 16.37938627 -55 12 C-47.01225502 8.14191101 -38.39251257 6.01171797 -29.84130859 3.7980957 C-27.50006803 3.18751774 -25.16643594 2.55215927 -22.83203125 1.91601562 C-7.0727136 -2.25976198 -7.0727136 -2.25976198 0 0 Z " fill="#FCFDFE" transform="translate(666,421)"/>
<path d="M0 0 C2.50010124 0.68381965 5.00448529 1.34984314 7.50976562 2.0144043 C9.12463627 2.45149521 10.73922973 2.88961178 12.35351562 3.32885742 C13.09018463 3.52381302 13.82685364 3.71876862 14.58584595 3.91963196 C22.04915294 5.99322109 28.41878544 9.00076464 34.18945312 14.24682617 C35.42115234 15.34124023 35.42115234 15.34124023 36.67773438 16.45776367 C40.1270906 20.24409075 41.90339593 23.33814367 41.81445312 28.49682617 C40.79196796 32.17777275 39.87934212 33.57588165 36.87695312 35.87182617 C33.94093864 36.85049767 31.98385813 37.01484066 28.92163086 37.04882812 C27.91305527 37.06166336 26.90447968 37.0744986 25.86534119 37.08772278 C24.77475906 37.09510971 23.68417694 37.10249664 22.56054688 37.11010742 C21.43431412 37.11817917 20.30808136 37.12625092 19.14772034 37.13456726 C16.75954731 37.14840848 14.37135449 37.15913046 11.9831543 37.16699219 C8.35296348 37.18414422 4.72369782 37.22802441 1.09375 37.2722168 C-1.22981103 37.28234935 -3.55337979 37.29086369 -5.87695312 37.29760742 C-6.95336563 37.31511551 -8.02977814 37.3326236 -9.1388092 37.35066223 C-17.51647159 37.32688147 -24.07068911 35.4889739 -31.12304688 30.93432617 C-35.88161261 26.02705526 -35.4588952 20.31596407 -35.43554688 13.87182617 C-35.45166016 12.98237305 -35.46777344 12.09291992 -35.484375 11.17651367 C-35.48805098 6.25070539 -35.34975502 2.85143289 -32.12304688 -1.12817383 C-23.54290123 -9.08050394 -9.98805955 -2.73964379 0 0 Z " fill="#FDFEFE" transform="translate(368.123046875,425.128173828125)"/>
<path d="M0 0 C2.18038095 3.27057143 2.63246755 4.20519469 2 8 C0 10.375 0 10.375 -3 13 C-3.52335937 13.48984375 -4.04671875 13.9796875 -4.5859375 14.484375 C-32.94294691 40.48861944 -73.67449394 64.90823081 -113 65.25 C-114.25744019 65.2641394 -114.25744019 65.2641394 -115.5402832 65.27856445 C-116.33136475 65.27429443 -117.12244629 65.27002441 -117.9375 65.265625 C-118.64777344 65.26336914 -119.35804688 65.26111328 -120.08984375 65.25878906 C-122 65 -122 65 -125 63 C-124.67 61.35 -124.34 59.7 -124 58 C-123.175 57.81937012 -122.35 57.63874023 -121.5 57.45263672 C-99.29673597 52.70556503 -99.29673597 52.70556503 -78 45 C-77.25250488 44.67273926 -76.50500977 44.34547852 -75.73486328 44.00830078 C-64.85877259 39.2103484 -54.74940007 33.79520924 -45 27 C-44.42975098 26.60699707 -43.85950195 26.21399414 -43.27197266 25.80908203 C-35.33529 20.32262071 -27.70331563 14.49025044 -20.1484375 8.4921875 C-7.44258872 -1.59484044 -7.44258872 -1.59484044 0 0 Z " fill="#1F71BD" transform="translate(447,650)"/>
<path d="M0 0 C4.91875371 2.8482311 8.18962787 6.91835141 11.0625 11.75 C12.52221188 18.02676109 12.4125281 24.57529117 9.8671875 30.55078125 C6.57631405 35.81399939 1.55292025 39.55059698 -4.3125 41.4375 C-11.40123377 42.34875726 -17.47169058 41.72164723 -23.3125 37.4375 C-28.67125208 32.1978313 -30.87042173 26.86360663 -31.8125 19.5625 C-31.52273522 13.42914558 -28.69719318 7.73404305 -24.3046875 3.50390625 C-17.15862122 -1.99408201 -8.53112922 -3.85383057 0 0 Z " fill="#FCFDFE" transform="translate(498.3125,603.5625)"/>
<path d="M0 0 C3.36824326 0.69092169 4.53071947 1.6398292 6.4375 4.5 C6.20784855 11.0297563 4.05509753 13.64021139 -0.51245117 18.01318359 C-11.3954311 28.15611408 -23.77304776 36.93191305 -36.5625 44.5 C-37.43092529 45.01554443 -37.43092529 45.01554443 -38.31689453 45.54150391 C-52.10428008 53.59769217 -69.15363748 61.75477273 -85.375 61.8125 C-86.47457031 61.82925781 -87.57414062 61.84601562 -88.70703125 61.86328125 C-91.5625 61.5 -91.5625 61.5 -93.51171875 60.23046875 C-94.5625 58.5 -94.5625 58.5 -94.45727539 56.51513672 C-93.5625 54.5 -93.5625 54.5 -91.30371094 53.39428711 C-90.31145508 53.1081958 -89.31919922 52.82210449 -88.296875 52.52734375 C-86.63567627 52.02303833 -86.63567627 52.02303833 -84.94091797 51.50854492 C-83.74354004 51.1551001 -82.54616211 50.80165527 -81.3125 50.4375 C-56.01977342 42.46743932 -35.32155211 28.92314191 -15.5625 11.5 C-14.37333984 10.45972656 -14.37333984 10.45972656 -13.16015625 9.3984375 C-12.46792969 8.79257812 -11.77570313 8.18671875 -11.0625 7.5625 C-10.44761719 7.02625 -9.83273437 6.49 -9.19921875 5.9375 C-7.74499457 4.66028162 -6.30864151 3.3627795 -4.875 2.0625 C-2.5625 0.5 -2.5625 0.5 0 0 Z " fill="#2073BE" transform="translate(477.5625,684.5)"/>
<path d="M0 0 C5.09920314 3.60403198 7.84403093 8.4383428 9.78515625 14.26171875 C10.48275007 20.65632875 9.21712555 26.19923889 5.203125 31.25390625 C1.19794803 35.45977837 -2.15369565 37.86060279 -8.046875 38.6328125 C-15.15661032 38.79122076 -19.80164274 38.02115152 -25.21484375 33.26171875 C-29.79291602 28.5631709 -31.28662184 23.84121625 -31.65234375 17.38671875 C-31.5117032 11.15165451 -28.99438702 7.12130122 -24.72265625 2.7265625 C-17.34295246 -3.83104994 -8.59757345 -4.87138853 0 0 Z " fill="#FBFDFE" transform="translate(247.21484375,273.73828125)"/>
<path d="M0 0 C6.02958916 2.6798174 10.18411219 7.16354498 12.69921875 13.296875 C13.60518597 20.67102679 13.19476164 27.20946775 8.69921875 33.296875 C4.17329163 37.94852231 -1.84432865 40.3665221 -8.30078125 40.734375 C-13.84208793 40.46274232 -18.29063748 38.42474953 -22.1015625 34.390625 C-27.29655896 27.74499707 -28.29015123 21.68906036 -27.30078125 13.296875 C-25.25196717 7.4502592 -21.03875594 3.54038372 -15.828125 0.3671875 C-10.58381215 -1.85374252 -5.39519149 -1.64878517 0 0 Z " fill="#FCFDFE" transform="translate(517.30078125,176.703125)"/>
<path d="M0 0 C1.28132812 0.00902344 2.56265625 0.01804687 3.8828125 0.02734375 C5.36394531 0.04474609 5.36394531 0.04474609 6.875 0.0625 C7.875 3.0625 7.875 3.0625 6.74194336 5.51660156 C5.86227905 6.97018066 5.86227905 6.97018066 4.96484375 8.453125 C4.31104736 9.54471924 3.65725098 10.63631348 2.98364258 11.76098633 C2.26027006 12.94503303 1.5365479 14.12886618 0.8125 15.3125 C0.08081835 16.52384621 -0.65004983 17.73568412 -1.38012695 18.94799805 C-2.88015931 21.43484996 -4.38636457 23.91780548 -5.89746094 26.39794922 C-7.99311443 29.83970679 -10.06501228 33.29533194 -12.1328125 36.75390625 C-13.35875078 38.79464595 -14.58528305 40.83502898 -15.8125 42.875 C-16.37525635 43.81569336 -16.9380127 44.75638672 -17.51782227 45.72558594 C-24.94701932 57.97350966 -24.94701932 57.97350966 -29.125 60.0625 C-34.29931193 60.50286697 -34.29931193 60.50286697 -37 59.0625 C-38.8409328 55.78973057 -38.75332984 52.66159126 -38.125 49.0625 C-36.46544546 45.34922788 -34.2842 42.02458913 -32.0625 38.625 C-30.783679 36.60379849 -29.50639251 34.58162545 -28.23046875 32.55859375 C-27.56063965 31.50655762 -26.89081055 30.45452148 -26.20068359 29.37060547 C-24.05707626 25.95424704 -21.97930136 22.50602835 -19.92578125 19.03515625 C-19.58510117 18.46025955 -19.24442108 17.88536285 -18.89341736 17.29304504 C-17.23319397 14.48895493 -15.57772916 11.68212095 -13.92553711 8.87329102 C-13.32620361 7.86580811 -12.72687012 6.8583252 -12.109375 5.8203125 C-11.58053711 4.9245752 -11.05169922 4.02883789 -10.50683594 3.10595703 C-7.79299091 -0.90727316 -4.53149993 -0.04119545 0 0 Z " fill="#2177C1" transform="translate(559.125,528.9375)"/>
<path d="M0 0 C2.5 1.5625 2.5 1.5625 4 4 C3.96655273 7.43481445 3.96655273 7.43481445 3 11 C0.45727539 12.95776367 0.45727539 12.95776367 -2.96484375 14.48046875 C-3.58455551 14.76367477 -4.20426727 15.0468808 -4.84275818 15.33866882 C-6.88259447 16.25808032 -8.93777045 17.13208389 -11 18 C-11.69877258 18.30053284 -12.39754517 18.60106567 -13.11749268 18.91070557 C-18.23919666 21.11139554 -23.39562587 23.22057337 -28.5625 25.3125 C-30.0946043 25.93765313 -31.62650636 26.56330214 -33.15820312 27.18945312 C-37.10261143 28.80010284 -41.04987228 30.40342397 -45 32 C-45.91257568 32.39598389 -46.82515137 32.79196777 -47.76538086 33.19995117 C-50.84855313 34.30380297 -52.88851606 33.89887314 -56 33 C-58.34549674 29.48175489 -58.57991403 28.14224306 -58 24 C-54.03913759 19.05487518 -49.46025376 17.11784548 -43.75 14.8125 C-42.84556152 14.43810791 -41.94112305 14.06371582 -41.00927734 13.67797852 C-39.05317963 12.87159873 -37.09457458 12.07128024 -35.13378906 11.27636719 C-31.8479029 9.93805207 -28.57633848 8.56802659 -25.3046875 7.1953125 C-23.07868312 6.27469101 -20.85213027 5.35539443 -18.625 4.4375 C-17.5740918 3.99575439 -16.52318359 3.55400879 -15.44042969 3.09887695 C-10.08618291 0.92668374 -5.79787117 -0.74212751 0 0 Z " fill="#2E8FCC" transform="translate(614,153)"/>
<path d="M0 0 C0.66 0.33 1.32 0.66 2 1 C1.21625 1.70125 0.4325 2.4025 -0.375 3.125 C-3.08360818 6.09157086 -4.01722715 8.1582516 -5 12 C-7.31 11.34 -9.62 10.68 -12 10 C-12.66 11.32 -13.32 12.64 -14 14 C-14.99 14 -15.98 14 -17 14 C-17.33 14.66 -17.66 15.32 -18 16 C-19.33333333 16.33333333 -20.66666667 16.66666667 -22 17 C-22.33 17.66 -22.66 18.32 -23 19 C-24.375 20.625 -24.375 20.625 -26 22 C-26.99 22 -27.98 22 -29 22 C-27.62694425 26.493637 -25.72179536 28.23029183 -22 31 C-18.62542785 34.13353128 -16.35267142 37.07888097 -14 41 C-12.35570171 42.68873879 -10.68615782 44.35305515 -9 46 C-8.01486 47.20346832 -7.03592727 48.41203827 -6.0625 49.625 C-3.42526357 52.76913382 -0.84447892 54.44390139 3 56 C2 58 2 58 1 59 C1.99 59 2.98 59 4 59 C4 59.99 4 60.98 4 62 C6.88437779 60.70700306 8.87219421 59.34058637 11 57 C11.66 58.32 12.32 59.64 13 61 C12.34 61 11.68 61 11 61 C11 61.66 11 62.32 11 63 C11.78375 62.505 12.5675 62.01 13.375 61.5 C16 60 16 60 18 60 C18 59.34 18 58.68 18 58 C19.64453125 56.34375 19.64453125 56.34375 21.8125 54.5 C22.52019531 53.8915625 23.22789062 53.283125 23.95703125 52.65625 C26 51 26 51 29 49 C26.91384841 53.59758619 23.75523837 56.68682381 20.25 60.25 C19.33734375 61.22453125 19.33734375 61.22453125 18.40625 62.21875 C13.86548573 66.83713417 13.86548573 66.83713417 9.76171875 67.609375 C6.69302292 66.93226531 5.63399356 66.31428708 3.5625 64 C3.04816406 63.443125 2.53382813 62.88625 2.00390625 62.3125 C0.82822172 60.95576464 -0.34730627 59.59889356 -1.52246094 58.24169922 C-5.70434453 53.43405932 -9.99786609 48.7549668 -14.375 44.125 C-15.68518374 42.7255299 -16.99508008 41.32579068 -18.3046875 39.92578125 C-20.51625891 37.56628054 -22.74482813 35.22813085 -25.0078125 32.91796875 C-25.83023437 32.05816406 -26.65265625 31.19835937 -27.5 30.3125 C-28.2115625 29.58675781 -28.923125 28.86101563 -29.65625 28.11328125 C-31 26 -31 26 -30.9453125 23.4296875 C-29.8308843 20.56533072 -28.84583507 19.61241543 -26.375 17.8125 C-25.57191406 17.2246875 -24.76882813 16.636875 -23.94140625 16.03125 C-18.59150024 12.33675979 -13.19239633 8.72112892 -7.75634766 5.15478516 C-5.16235424 3.44925432 -2.58122449 1.72478134 0 0 Z " fill="#196ABA" transform="translate(497,757)"/>
<path d="M0 0 C0.33 0 0.66 0 1 0 C1 35.97 1 71.94 1 109 C1.66 109 2.32 109 3 109 C4.29925791 113.33085971 5.343621 117.51474352 6 122 C6.66 122 7.32 122 8 122 C8.495 121.01 8.495 121.01 9 120 C9.20625 120.78375 9.4125 121.5675 9.625 122.375 C10.76196317 125.19586154 10.76196317 125.19586154 13.47509766 126.13818359 C17.95508962 127.23351339 22.17725112 127.35425665 26.7734375 127.4140625 C27.6971817 127.43342865 28.6209259 127.4527948 29.57266235 127.4727478 C32.50668264 127.53225705 35.44074276 127.57881395 38.375 127.625 C40.37111032 127.66320617 42.36720463 127.70225942 44.36328125 127.7421875 C49.24205651 127.83793496 54.12090891 127.92207139 59 128 C56.40073198 130.59926802 54.57491647 130.25880901 51.03244019 130.30354309 C50.2147818 130.30263168 49.39712341 130.30172028 48.5546875 130.30078125 C47.71084503 130.30506638 46.86700256 130.3093515 45.99758911 130.31376648 C44.20706072 130.31951773 42.41650896 130.32000421 40.62597656 130.31567383 C37.90648499 130.31253632 35.18810516 130.33588358 32.46875 130.36132812 C30.72656386 130.36360351 28.98437482 130.3643035 27.2421875 130.36328125 C26.4366745 130.372491 25.6311615 130.38170074 24.80123901 130.39118958 C17.23756187 130.33030095 10.506083 128.506083 5 123 C1.4666903 117.89102517 -0.12716486 113.43105493 -0.12025452 107.26702881 C-0.12162918 106.3191449 -0.12300385 105.37126099 -0.12442017 104.39465332 C-0.12082489 103.36175171 -0.11722961 102.3288501 -0.11352539 101.26464844 C-0.11367142 100.17166443 -0.11381744 99.07868042 -0.1139679 97.95257568 C-0.11327096 94.3381553 -0.10548876 90.72378639 -0.09765625 87.109375 C-0.09579129 84.60402454 -0.09436776 82.09867371 -0.09336853 79.59332275 C-0.08993987 73.67189789 -0.08205751 67.75048956 -0.07201904 61.82907319 C-0.05974001 54.42511458 -0.05437302 47.02115368 -0.04882812 39.6171875 C-0.0381016 26.41144894 -0.02122457 13.20572564 0 0 Z " fill="#0E51AE" transform="translate(311,431)"/>
<path d="M0 0 C0 3.20395416 -0.74335022 5.09399739 -2 8 C-1.34 8.66 -0.68 9.32 0 10 C-3.625 13 -3.625 13 -7 13 C-8.32 15.64 -9.64 18.28 -11 21 C-11.66 21 -12.32 21 -13 21 C-13.268125 21.680625 -13.53625 22.36125 -13.8125 23.0625 C-15.16053306 26.39710809 -16.57536298 29.69743237 -18 33 C-18.66 33 -19.32 33 -20 33 C-20.2475 33.825 -20.495 34.65 -20.75 35.5 C-22.18704811 39.52373471 -24.02354515 43.21979024 -26 47 C-24.78763672 47.18175781 -24.78763672 47.18175781 -23.55078125 47.3671875 C-22.48214844 47.53476563 -21.41351563 47.70234375 -20.3125 47.875 C-19.25675781 48.03742188 -18.20101562 48.19984375 -17.11328125 48.3671875 C-14 49 -14 49 -11.35546875 50.0703125 C-8.80193756 51.24475428 -8.80193756 51.24475428 -5 51 C-5 51.99 -5 52.98 -5 54 C-9.67943727 53.10867861 -14.25978608 51.92172687 -18.8671875 50.71875 C-22.23026851 49.94717032 -25.57980631 49.44573953 -29 49 C-12.70221328 12.70221328 -12.70221328 12.70221328 0 0 Z " fill="#1467B9" transform="translate(265,188)"/>
<path d="M0 0 C0.33 0.66 0.66 1.32 1 2 C-0.06396484 4.55029297 -0.06396484 4.55029297 -1.7109375 7.7421875 C-2.29617188 8.89074219 -2.88140625 10.03929687 -3.484375 11.22265625 C-4.11402456 12.44039325 -4.74423893 13.65783837 -5.375 14.875 C-6.59636277 17.2447989 -7.81098044 19.61779242 -9.0234375 21.9921875 C-9.56919434 23.04776855 -10.11495117 24.10334961 -10.67724609 25.19091797 C-11.77427275 27.52063165 -12.41204995 29.5221602 -13 32 C-14 33 -15 34 -16 35 C-16.71447643 37.10332891 -16.71447643 37.10332891 -17 39 C-17.66 39 -18.32 39 -19 39 C-19.66 40.32 -20.32 41.64 -21 43 C-21.33 42.34 -21.66 41.68 -22 41 C-21.1706543 39.05493164 -21.1706543 39.05493164 -19.82421875 36.66015625 C-19.33018555 35.77021973 -18.83615234 34.8802832 -18.32714844 33.96337891 C-17.78606445 33.00608887 -17.24498047 32.04879883 -16.6875 31.0625 C-15.58077952 29.07231014 -14.47533502 27.08141025 -13.37109375 25.08984375 C-12.80890137 24.07905762 -12.24670898 23.06827148 -11.66748047 22.02685547 C-9.13260541 17.42548197 -6.68546047 12.77956497 -4.25 8.125 C-3.82033936 7.30523682 -3.39067871 6.48547363 -2.94799805 5.64086914 C-1.96384125 3.76135928 -0.98166987 1.88080998 0 0 Z " fill="#1676C0" transform="translate(729,495)"/>
<path d="M0 0 C0.66 0.33 1.32 0.66 2 1 C1.38125 1.598125 0.7625 2.19625 0.125 2.8125 C-2.13676954 5.00811144 -2.13676954 5.00811144 -4 8 C-6 11 -6 11 -8.3125 12.375 C-11.17194165 13.95763756 -11.17194165 13.95763756 -13.6875 16.6875 C-14.450625 17.450625 -15.21375 18.21375 -16 19 C-16.66 19 -17.32 19 -18 19 C-18.33 21.31 -18.66 23.62 -19 26 C-19.33 25.34 -19.66 24.68 -20 24 C-20.99 23.67 -21.98 23.34 -23 23 C-15.93922567 14.66783222 -8.4079519 6.97681115 0 0 Z " fill="#1971BF" transform="translate(310,138)"/>
<path d="M0 0 C4 0 4 0 6.625 0.5625 C9.0065104 1.24751573 9.0065104 1.24751573 11 0 C12.4606285 2.64738916 13 3.89448334 13 7 C20.425 7.99 20.425 7.99 28 9 C28 9.33 28 9.66 28 10 C18.89608656 10.80644903 10.52483223 9.27654377 3.1328125 3.5546875 C1.75 2.1875 1.75 2.1875 0 0 Z " fill="#1966B7" transform="translate(211,321)"/>
<path d="M0 0 C-1.20381448 2.49361571 -2.45428722 4.68143083 -4 7 C-6.475 6.505 -6.475 6.505 -9 6 C-9.66 7.32 -10.32 8.64 -11 10 C-11.33 8.68 -11.66 7.36 -12 6 C-13.32 6 -14.64 6 -16 6 C-16.33 6.66 -16.66 7.32 -17 8 C-18.65 8 -20.3 8 -22 8 C-18.36430434 4.84018074 -14.32893593 3.39134311 -9.875 1.75 C-9.14667969 1.46898437 -8.41835938 1.18796875 -7.66796875 0.8984375 C-2.2494709 -1.12473545 -2.2494709 -1.12473545 0 0 Z " fill="#1B70BE" transform="translate(320,262)"/>
<path d="M0 0 C1.8871875 0.0309375 1.8871875 0.0309375 3.8125 0.0625 C2.4925 1.3825 1.1725 2.7025 -0.1875 4.0625 C-0.1875 3.4025 -0.1875 2.7425 -0.1875 2.0625 C-1.5075 2.3925 -2.8275 2.7225 -4.1875 3.0625 C-3.5275 3.0625 -2.8675 3.0625 -2.1875 3.0625 C-1.8575 4.0525 -1.5275 5.0425 -1.1875 6.0625 C3.1025 6.3925 7.3925 6.7225 11.8125 7.0625 C11.8125 7.3925 11.8125 7.7225 11.8125 8.0625 C9.04140693 8.11642397 6.27136182 8.15613455 3.5 8.1875 C2.71431641 8.20425781 1.92863281 8.22101562 1.11914062 8.23828125 C0.36181641 8.24472656 -0.39550781 8.25117187 -1.17578125 8.2578125 C-2.22052612 8.27352295 -2.22052612 8.27352295 -3.28637695 8.28955078 C-5.1875 8.0625 -5.1875 8.0625 -8.1875 6.0625 C-7.8575 4.4125 -7.5275 2.7625 -7.1875 1.0625 C-4.43671116 0.14557039 -2.82801087 -0.04636083 0 0 Z " fill="#145CB2" transform="translate(330.1875,706.9375)"/>
<path d="M0 0 C1 2 1 2 0.00390625 5.0390625 C-0.47175781 6.22242188 -0.94742187 7.40578125 -1.4375 8.625 C-1.91058594 9.81351562 -2.38367188 11.00203125 -2.87109375 12.2265625 C-3.24363281 13.14179688 -3.61617188 14.05703125 -4 15 C-3.34 15.33 -2.68 15.66 -2 16 C-2.66 16.33 -3.32 16.66 -4 17 C-4.33 17.99 -4.66 18.98 -5 20 C-4.34 20.66 -3.68 21.32 -3 22 C-4.32 23.32 -5.64 24.64 -7 26 C-9.32535073 16.27580603 -5.00719811 8.19359692 0 0 Z " fill="#236FBB" transform="translate(319,408)"/>
<path d="M0 0 C0.66 0.33 1.32 0.66 2 1 C-1.61328125 5.6875 -1.61328125 5.6875 -3 7 C-3.99 7 -4.98 7 -6 7 C-6.2475 7.78375 -6.495 8.5675 -6.75 9.375 C-8.21350959 12.44837014 -8.92796053 12.77118421 -12 14 C-13.299375 14.8353125 -13.299375 14.8353125 -14.625 15.6875 C-15.40875 16.120625 -16.1925 16.55375 -17 17 C-17.66 16.67 -18.32 16.34 -19 16 C-12.85340818 10.41758811 -6.53111647 5.12672191 0 0 Z " fill="#196FBD" transform="translate(542,722)"/>
<path d="M0 0 C-2.67985418 2.67985418 -5.42431913 3.16491955 -9.00390625 4.21875 C-11.18727401 4.81628991 -11.18727401 4.81628991 -12 7 C-13.9609375 7.44921875 -13.9609375 7.44921875 -16.375 7.6875 C-17.16648437 7.77386719 -17.95796875 7.86023438 -18.7734375 7.94921875 C-21 8 -21 8 -24 7 C-5.65018558 -0.54679215 -5.65018558 -0.54679215 0 0 Z " fill="#1B78C2" transform="translate(427,77)"/>
<path d="M0 0 C3.3 1.98 6.6 3.96 10 6 C9 8 9 8 8 9 C8.99 9 9.98 9 11 9 C11.680625 10.175625 11.680625 10.175625 12.375 11.375 C14.27832388 14.44960012 15.60488472 14.9906414 19 16 C19 16.33 19 16.66 19 17 C16.9375 17.4375 16.9375 17.4375 14 17 C11.36049895 14.94984122 9.21350726 12.49429042 7 10 C6.33871094 9.28199219 5.67742187 8.56398438 4.99609375 7.82421875 C0 2.30328283 0 2.30328283 0 0 Z " fill="#1260B4" transform="translate(490,807)"/>
<path d="M0 0 C0 3 0 3 -1.37695312 4.7175293 C-2.00537109 5.33023682 -2.63378906 5.94294434 -3.28125 6.57421875 C-3.95800781 7.24130859 -4.63476562 7.90839844 -5.33203125 8.59570312 C-6.04746094 9.28599609 -6.76289062 9.97628906 -7.5 10.6875 C-8.57314453 11.7403418 -8.57314453 11.7403418 -9.66796875 12.81445312 C-11.43879577 14.54986361 -13.21623456 16.2779073 -15 18 C-15.66 16.68 -16.32 15.36 -17 14 C-14 12 -14 12 -12.140625 11.1953125 C-9.17306556 9.53824464 -7.11653853 7.30381586 -4.75 4.875 C-3.85796875 3.96492187 -2.9659375 3.05484375 -2.046875 2.1171875 C-1.37140625 1.41851563 -0.6959375 0.71984375 0 0 Z " fill="#0E67BB" transform="translate(574,755)"/>
<path d="M0 0 C0.33 0.99 0.66 1.98 1 3 C-1.31037152 7.26530127 -3.5079444 10.04192448 -8 12 C-8.99 11.67 -9.98 11.34 -11 11 C-10.01 10.34 -9.02 9.68 -8 9 C-8 8.01 -8 7.02 -8 6 C-7.01 5.67 -6.02 5.34 -5 5 C-4.67 4.34 -4.34 3.68 -4 3 C-3.01 3.33 -2.02 3.66 -1 4 C-0.67 2.68 -0.34 1.36 0 0 Z " fill="#1B66B8" transform="translate(382,547)"/>
<path d="M0 0 C0.33 0.66 0.66 1.32 1 2 C-2.78488085 4.03374027 -6.57891335 6.04976448 -10.375 8.0625 C-11.45523437 8.64322266 -12.53546875 9.22394531 -13.6484375 9.82226562 C-14.6796875 10.36689453 -15.7109375 10.91152344 -16.7734375 11.47265625 C-17.72653809 11.98062744 -18.67963867 12.48859863 -19.66162109 13.01196289 C-20.43328613 13.33801514 -21.20495117 13.66406738 -22 14 C-22.66 13.67 -23.32 13.34 -24 13 C-19.6230803 8.1228609 -19.6230803 8.1228609 -16.78125 7.5625 C-13.0947931 6.81692445 -9.99532237 5.15784016 -6.6875 3.4375 C-6.04232422 3.10814453 -5.39714844 2.77878906 -4.73242188 2.43945312 C-3.15214772 1.63175745 -1.57567895 0.81662387 0 0 Z " fill="#1672BF" transform="translate(399,130)"/>
<path d="M0 0 C0.66 0.33 1.32 0.66 2 1 C0.73742767 2.17560179 -0.53537084 3.34022865 -1.8125 4.5 C-2.87404297 5.47453125 -2.87404297 5.47453125 -3.95703125 6.46875 C-6 8 -6 8 -9 8 C-9.33 9.32 -9.66 10.64 -10 12 C-11.98 12.33 -13.96 12.66 -16 13 C-11.3126338 7.82773385 -5.68271819 4.01074507 0 0 Z " fill="#136DBD" transform="translate(340,115)"/>
<path d="M0 0 C-4.47090212 2.43258416 -9.04626044 3.20736724 -14 4.1875 C-14.90234375 4.37763672 -15.8046875 4.56777344 -16.734375 4.76367188 C-18.04148437 5.02567383 -18.04148437 5.02567383 -19.375 5.29296875 C-20.16648437 5.4530542 -20.95796875 5.61313965 -21.7734375 5.77807617 C-24.12257254 6.01221693 -25.7645068 5.7110323 -28 5 C-26.35 4.67 -24.7 4.34 -23 4 C-23 3.01 -23 2.02 -23 1 C-22.05125 1.20625 -21.1025 1.4125 -20.125 1.625 C-15.97273252 2.23983879 -12.43148116 1.4023522 -8.37890625 0.48046875 C-5.5509882 -0.09068711 -2.87640123 -0.15138954 0 0 Z " fill="#0E71BE" transform="translate(467,111)"/>
<path d="M0 0 C0.99 0.33 1.98 0.66 3 1 C3.22331199 2.58129029 3.42804644 4.16521089 3.625 5.75 C3.74101563 6.63171875 3.85703125 7.5134375 3.9765625 8.421875 C4.00207817 11.22859878 3.44843844 12.63384866 2 15 C2 14.34 2 13.68 2 13 C1.01 12.67 0.02 12.34 -1 12 C-1 11.01 -1 10.02 -1 9 C-0.34 9 0.32 9 1 9 C0.67 8.34 0.34 7.68 0 7 C-0.04022391 4.6670134 -0.04320247 2.33293334 0 0 Z " fill="#3492CE" transform="translate(791,307)"/>
<path d="M0 0 C3.30218527 2.58431891 3.40204581 4.98516472 4 9 C4.66 9.66 5.32 10.32 6 11 C6.33 11 6.66 11 7 11 C7.66 13.64 8.32 16.28 9 19 C3.74771169 14.47719618 0.32390931 8.96788905 -0.25 1.9375 C-0.1675 1.298125 -0.085 0.65875 0 0 Z " fill="#1465B7" transform="translate(450,631)"/>
<path d="M0 0 C0.33 0.66 0.66 1.32 1 2 C-0.2739589 4.03833424 -1.61061923 6.03852126 -3 8 C-3.66 8 -4.32 8 -5 8 C-5.2475 8.61875 -5.495 9.2375 -5.75 9.875 C-7.20628639 12.35068687 -8.37812506 12.95125002 -11 14 C-9.42219077 10.28954753 -7.09296752 7.70093616 -4.375 4.75 C-3.55773437 3.85796875 -2.74046875 2.9659375 -1.8984375 2.046875 C-1.27195312 1.37140625 -0.64546875 0.6959375 0 0 Z " fill="#1B79C2" transform="translate(648,618)"/>
<path d="M0 0 C0 3.70230387 -1.32490308 4.76256639 -3.703125 7.44140625 C-5.17886793 9.11679315 -5.17886793 9.11679315 -6.5625 11.8125 C-8 14 -8 14 -10.08984375 14.63671875 C-10.72019531 14.75660156 -11.35054687 14.87648438 -12 15 C-8.19695186 9.80789528 -4.23841458 4.84390238 0 0 Z " fill="#1A78C1" transform="translate(667,595)"/>
<path d="M0 0 C2.37590142 3.70416126 2.20500286 6.92984573 2.125 11.25 C2.10695313 12.51328125 2.08890625 13.7765625 2.0703125 15.078125 C2.03550781 16.52445312 2.03550781 16.52445312 2 18 C0.48046875 16.98046875 0.48046875 16.98046875 -1 15 C-1.05546517 12.32891426 -0.96547069 9.94707177 -0.6875 7.3125 C-0.62626953 6.61060547 -0.56503906 5.90871094 -0.50195312 5.18554688 C-0.34897376 3.4557033 -0.17637398 1.72761503 0 0 Z " fill="#3791CD" transform="translate(797,372)"/>
<path d="M0 0 C-1.1094072 3.48670834 -2.26337666 6.77484237 -4 10 C-4.66 10 -5.32 10 -6 10 C-6.33663062 6.29706315 -6.47736015 4.60465619 -4.125 1.625 C-2 0 -2 0 0 0 Z " fill="#1A6EBC" transform="translate(290,273)"/>
<path d="M0 0 C0 3 0 3 -2.625 5.91796875 C-3.74249406 7.01550756 -4.86785643 8.10507895 -6 9.1875 C-6.57234375 9.74630859 -7.1446875 10.30511719 -7.734375 10.88085938 C-9.14962788 12.26073093 -10.57397155 13.63126734 -12 15 C-12.33 14.01 -12.66 13.02 -13 12 C-12.01 11.67 -11.02 11.34 -10 11 C-10 10.34 -10 9.68 -10 9 C-8.3203125 7.34375 -8.3203125 7.34375 -6.125 5.5 C-4.00964496 3.71066742 -1.95980876 1.95980876 0 0 Z " fill="#0E60B6" transform="translate(525,806)"/>
<path d="M0 0 C0 3 0 3 -1.4375 4.5 C-1.953125 4.995 -2.46875 5.49 -3 6 C-3.33 6.99 -3.66 7.98 -4 9 C-5.62332967 10.38576923 -7.28724465 11.72641268 -9 13 C-9.66 12.67 -10.32 12.34 -11 12 C-3.70159453 3.55353075 -3.70159453 3.55353075 0 0 Z " fill="#1C79C2" transform="translate(635,633)"/>
<path d="M0 0 C0.33 0.66 0.66 1.32 1 2 C0.19555664 3.69580078 0.19555664 3.69580078 -1.08984375 5.6953125 C-1.54423828 6.41074219 -1.99863281 7.12617188 -2.46679688 7.86328125 C-2.95212891 8.60964844 -3.43746094 9.35601562 -3.9375 10.125 C-4.41896484 10.87910156 -4.90042969 11.63320312 -5.39648438 12.41015625 C-6.59057797 14.27814425 -7.79194768 16.14102066 -9 18 C-9.33 17.34 -9.66 16.68 -10 16 C-8.8203125 13.7578125 -8.8203125 13.7578125 -7.125 11.125 C-4.84860054 7.66303468 -4.84860054 7.66303468 -3.4921875 3.8046875 C-3 2 -3 2 0 0 Z " fill="#166BBC" transform="translate(286,229)"/>
<path d="M0 0 C0 3.80345877 -1.13786331 4.77701015 -3.5 7.6875 C-4.47453125 8.89986328 -4.47453125 8.89986328 -5.46875 10.13671875 C-5.9740625 10.75160156 -6.479375 11.36648437 -7 12 C-7 9.66666667 -7 7.33333333 -7 5 C-6.34 5 -5.68 5 -5 5 C-4.67 4.01 -4.34 3.02 -4 2 C-1.9375 0.8125 -1.9375 0.8125 0 0 Z " fill="#1B71BF" transform="translate(304,204)"/>
<path d="M0 0 C0.66 0.33 1.32 0.66 2 1 C1.67 1.99 1.34 2.98 1 4 C-1.64 4.33 -4.28 4.66 -7 5 C-7.33 5.99 -7.66 6.98 -8 8 C-9.65 8.33 -11.3 8.66 -13 9 C-12 6 -12 6 -9.34765625 4.359375 C-8.26355469 3.82828125 -7.17945313 3.2971875 -6.0625 2.75 C-4.98097656 2.20859375 -3.89945312 1.6671875 -2.78515625 1.109375 C-1.40650391 0.56023437 -1.40650391 0.56023437 0 0 Z " fill="#1973C0" transform="translate(375,95)"/>
<path d="M0 0 C1.65 0 3.3 0 5 0 C5.06058594 0.59296875 5.12117188 1.1859375 5.18359375 1.796875 C6.34977113 4.94387999 8.17398151 5.64120489 11.0625 7.25 C12.44115234 8.03117188 12.44115234 8.03117188 13.84765625 8.828125 C14.55792969 9.21484375 15.26820313 9.6015625 16 10 C13 11 13 11 10.87890625 9.9609375 C6.57682625 7.01549993 2.96800445 4.38748484 0 0 Z " fill="#1261B6" transform="translate(459,650)"/>
<path d="M0 0 C0.66 0.33 1.32 0.66 2 1 C1.00795408 2.33926199 0.00573778 3.67098936 -1 5 C-1.639375 5.886875 -2.27875 6.77375 -2.9375 7.6875 C-5.044588 10.04999261 -5.92189622 10.67020317 -9 11 C-6.36113346 6.7973607 -3.63559661 3.43361902 0 0 Z " fill="#1464B7" transform="translate(329,396)"/>
<path d="M0 0 C0.28875 0.639375 0.5775 1.27875 0.875 1.9375 C1.82823451 4.15206079 1.82823451 4.15206079 4 5 C4 5.99 4 6.98 4 8 C4.66 8 5.32 8 6 8 C7.625 10.5 7.625 10.5 9 13 C5.44996731 12.01387981 4.06604107 11.08032022 1.6875 8.1875 C0.01384216 5.02614631 -0.4106003 3.49010259 0 0 Z M8 8 C8.33 8.66 8.66 9.32 9 10 C8.34 9.67 7.68 9.34 7 9 C7.33 8.67 7.66 8.34 8 8 Z " fill="#1763B6" transform="translate(300,375)"/>
<path d="M0 0 C-5.673142 2.45417612 -10.81839396 4.46246904 -17 5 C-14 3 -14 3 -12 3 C-11.67 2.01 -11.34 1.02 -11 0 C-9.54263913 -0.19491452 -8.08405407 -0.38069358 -6.625 -0.5625 C-5.81289063 -0.66691406 -5.00078125 -0.77132812 -4.1640625 -0.87890625 C-2 -1 -2 -1 0 0 Z " fill="#105FB5" transform="translate(375,706)"/>
<path d="M0 0 C11.52164009 0.77904328 11.52164009 0.77904328 17 3 C17 3.33 17 3.66 17 4 C10.83381819 4.40214229 5.82254243 2.96818336 0 1 C0 0.67 0 0.34 0 0 Z " fill="#1764B7" transform="translate(311,389)"/>
<path d="M0 0 C2 1 2 1 4 3 C4.78944072 7.40618076 4.49537141 10.25694288 2 14 C1.34 14 0.68 14 0 14 C0.185625 12.80375 0.37125 11.6075 0.5625 10.375 C1.0311197 6.71716293 0.81481013 3.62137834 0 0 Z " fill="#2E88C9" transform="translate(702,365)"/>
<path d="M0 0 C1 2 1 2 0.07421875 5.00390625 C-0.38339844 6.17824219 -0.84101563 7.35257812 -1.3125 8.5625 C-1.76238281 9.73941406 -2.21226562 10.91632813 -2.67578125 12.12890625 C-4 15 -4 15 -6 16 C-5.59683075 9.68368172 -3.28767869 5.35006016 0 0 Z " fill="#145FB4" transform="translate(319,408)"/>
<path d="M0 0 C0 3.35279018 -0.35469584 5.08332445 -2 8 C-5.125 9.3125 -5.125 9.3125 -8 10 C-7.04367001 8.70684939 -6.08486149 7.41553147 -5.125 6.125 C-4.59132813 5.40570313 -4.05765625 4.68640625 -3.5078125 3.9453125 C-2 2 -2 2 0 0 Z " fill="#1870BF" transform="translate(280,169)"/>
<path d="M0 0 C0.33 0.66 0.66 1.32 1 2 C0.67 2.66 0.34 3.32 0 4 C-0.66 4 -1.32 4 -2 4 C-2.33 6.31 -2.66 8.62 -3 11 C-3.33 10.34 -3.66 9.68 -4 9 C-4.99 8.67 -5.98 8.34 -7 8 C-4.69 5.36 -2.38 2.72 0 0 Z " fill="#2377C1" transform="translate(294,153)"/>
<path d="M0 0 C-0.66 0 -1.32 0 -2 0 C-2 1.98 -2 3.96 -2 6 C-2.99 6 -3.98 6 -5 6 C-6.0625 4.125 -6.0625 4.125 -7 2 C-5.26578631 -1.46842738 -3.40984787 -1.13661596 0 0 Z " fill="#1E7AC3" transform="translate(402,86)"/>
<path d="M0 0 C1.65 1.65 3.3 3.3 5 5 C4.67 5.99 4.34 6.98 4 8 C2.35 6.68 0.7 5.36 -1 4 C-0.67 2.68 -0.34 1.36 0 0 Z " fill="#2270BC" transform="translate(475,788)"/>
<path d="M0 0 C0.66 0 1.32 0 2 0 C3.83691257 3.78187881 4.15837626 5.94568308 3 10 C-0.00617269 6.99382731 0.40414684 4.17618402 0 0 Z " fill="#1358AE" transform="translate(218,450)"/>
<path d="M0 0 C2.31 0.66 4.62 1.32 7 2 C6.67 2.66 6.34 3.32 6 4 C2.9375 4.625 2.9375 4.625 0 5 C-0.33 4.01 -0.66 3.02 -1 2 C-0.67 1.34 -0.34 0.68 0 0 Z " fill="#1A72BE" transform="translate(340,263)"/>
<path d="M0 0 C0.33 0 0.66 0 1 0 C1 3.96 1 7.92 1 12 C0.01 12 -0.98 12 -2 12 C-1 3.42857143 -1 3.42857143 0 0 Z " fill="#3B93CD" transform="translate(548,190)"/>
<path d="M0 0 C0.5775 0.61875 1.155 1.2375 1.75 1.875 C3.80249821 3.81347053 5.43366582 4.90014249 8 6 C7.67 7.32 7.34 8.64 7 10 C5.82739389 8.71372289 4.6620717 7.42080217 3.5 6.125 C2.8503125 5.40570313 2.200625 4.68640625 1.53125 3.9453125 C0 2 0 2 0 0 Z " fill="#125DB2" transform="translate(203,311)"/>
<path d="M0 0 C0.66 0.33 1.32 0.66 2 1 C0.35 2.98 -1.3 4.96 -3 7 C-3.99 6.34 -4.98 5.68 -6 5 C-4.02 3.35 -2.04 1.7 0 0 Z " fill="#166ABB" transform="translate(450,706)"/>
<path d="M0 0 C0.99 0.33 1.98 0.66 3 1 C2.34 1 1.68 1 1 1 C1 1.66 1 2.32 1 3 C1.66 3.33 2.32 3.66 3 4 C1.1875 5.5625 1.1875 5.5625 -1 7 C-1.99 6.67 -2.98 6.34 -4 6 C-3.01 5.34 -2.02 4.68 -1 4 C-1 3.01 -1 2.02 -1 1 C-0.67 0.67 -0.34 0.34 0 0 Z " fill="#1460B4" transform="translate(375,552)"/>
<path d="M0 0 C0.99 0.33 1.98 0.66 3 1 C1.63016497 4.16115776 1.0109362 4.9927092 -2 7 C-1.125 1.125 -1.125 1.125 0 0 Z " fill="#2778C1" transform="translate(551,776)"/>
<path d="M0 0 C1.32 0.66 2.64 1.32 4 2 C-1.2734375 5.22265625 -1.2734375 5.22265625 -3 6 C-3.66 5.67 -4.32 5.34 -5 5 C-3.35 3.35 -1.7 1.7 0 0 Z " fill="#287EC3" transform="translate(596,673)"/>
<path d="M0 0 C0.33 0.66 0.66 1.32 1 2 C-0.98 4.97 -0.98 4.97 -3 8 C-3.66 6.68 -4.32 5.36 -5 4 C-3.35 2.68 -1.7 1.36 0 0 Z " fill="#166DBC" transform="translate(291,221)"/>
<path d="M0 0 C0.33 1.32 0.66 2.64 1 4 C0.34 4 -0.32 4 -1 4 C-1.66 5.32 -2.32 6.64 -3 8 C-3.99 8 -4.98 8 -6 8 C-6 7.34 -6 6.68 -6 6 C-5.38125 5.938125 -4.7625 5.87625 -4.125 5.8125 C-1.72238859 5.171081 -1.72238859 5.171081 -0.75 2.4375 C-0.5025 1.633125 -0.255 0.82875 0 0 Z " fill="#2C85C8" transform="translate(465,214)"/>
<path d="M0 0 C0 3 0 3 -1.3125 4.38671875 C-2.875 5.59114583 -4.4375 6.79557292 -6 8 C-6.33 7.01 -6.66 6.02 -7 5 C-6.030625 4.360625 -5.06125 3.72125 -4.0625 3.0625 C-1.23963731 1.3034741 -1.23963731 1.3034741 0 0 Z " fill="#1473BF" transform="translate(654,671)"/>
<path d="M0 0 C1 2 1 2 0.8125 4 C0 6 0 6 -2.0625 7.25 C-3.0215625 7.62125 -3.0215625 7.62125 -4 8 C-4 4.09161134 -2.49432124 2.88405893 0 0 Z " fill="#166DBD" transform="translate(271,180)"/>
<path d="M0 0 C0.99 0.33 1.98 0.66 3 1 C3.33 1.99 3.66 2.98 4 4 C-0.455 4.495 -0.455 4.495 -5 5 C-2 3 -2 3 0 3 C0 2.01 0 1.02 0 0 Z " fill="#1A7AC3" transform="translate(444,112)"/>
<path d="M0 0 C0.99 0.33 1.98 0.66 3 1 C1.25 4.875 1.25 4.875 -1 6 C-1.625 4.125 -1.625 4.125 -2 2 C-1.34 1.34 -0.68 0.68 0 0 Z " fill="#1970BC" transform="translate(559,767)"/>
<path d="M0 0 C2.475 0.495 2.475 0.495 5 1 C5.33 2.65 5.66 4.3 6 6 C5.01 6 4.02 6 3 6 C2.01 4.02 1.02 2.04 0 0 Z " fill="#296EBC" transform="translate(255,452)"/>
<path d="M0 0 C0.99 0 1.98 0 3 0 C3 2.31 3 4.62 3 7 C2.01 7 1.02 7 0 7 C0 4.69 0 2.38 0 0 Z " fill="#378CCC" transform="translate(691,427)"/>
<path d="M0 0 C0.99 0.66 1.98 1.32 3 2 C0.6875 3.5625 0.6875 3.5625 -2 5 C-2.99 4.67 -3.98 4.34 -5 4 C-4.34 4 -3.68 4 -3 4 C-2.67 3.01 -2.34 2.02 -2 1 C-1.34 0.67 -0.68 0.34 0 0 Z " fill="#2D89CA" transform="translate(695,383)"/>
<path d="M0 0 C1.32 0 2.64 0 4 0 C3.67 0.99 3.34 1.98 3 3 C1.02 3.33 -0.96 3.66 -3 4 C-1.75 2 -1.75 2 0 0 Z " fill="#1F77C1" transform="translate(327,124)"/>
</svg>
