<?xml version="1.0" encoding="UTF-8"?>
<svg version="1.1" xmlns="http://www.w3.org/2000/svg" width="563" height="546">
<path d="M0 0 C185.79 0 371.58 0 563 0 C563 180.18 563 360.36 563 546 C377.21 546 191.42 546 0 546 C0 365.82 0 185.64 0 0 Z " fill="#FCFCFC" transform="translate(0,0)"/>
<path d="M0 0 C1.45296636 -0.00337342 2.90592995 -0.00823041 4.35888672 -0.01449585 C7.3951317 -0.02184266 10.43063818 -0.01123418 13.46679688 0.01220703 C17.34405303 0.04069532 21.21957848 0.02427928 25.09677124 -0.00565529 C28.09445051 -0.02378883 31.09172452 -0.01794297 34.0894165 -0.00501633 C35.51825164 -0.00169893 36.94712448 -0.00571038 38.37591553 -0.01741409 C50.88261951 -0.09739701 50.88261951 -0.09739701 55.44262695 2.99951172 C58.44182353 5.97878098 59.73661868 8.5118802 61.3125 12.4140625 C62.89847884 15.89393869 62.89847884 15.89393869 65.125 18.6640625 C68.41111248 19.72772522 70.92072224 19.812197 74.35546875 19.609375 C77.65426379 19.67451341 78.83129053 20.33781814 81.125 22.6640625 C81.375 25.3515625 81.375 25.3515625 81.125 27.6640625 C75.5 30.6640625 75.5 30.6640625 72.125 30.6640625 C72.47904907 31.12205734 72.83309814 31.58005219 73.19787598 32.05192566 C77.21071971 37.73433545 77.84197485 42.11227809 77.71875 48.96484375 C77.71879028 49.92303513 77.71883057 50.8812265 77.71887207 51.86845398 C77.71354028 53.87957371 77.69605868 55.89069458 77.66699219 57.90161133 C77.62488231 60.98518039 77.62595033 64.06658049 77.6328125 67.15039062 C77.62232774 69.10939021 77.6093935 71.06837856 77.59375 73.02734375 C77.59344788 74.41014275 77.59344788 74.41014275 77.59313965 75.82087708 C77.57722778 76.67574203 77.56131592 77.53060699 77.54492188 78.41137695 C77.53650269 79.16224075 77.5280835 79.91310455 77.51940918 80.6867218 C77.01021304 83.23953829 76.20326933 84.12592214 74.125 85.6640625 C71.35992967 85.98919259 68.8853202 86.12857631 66.125 86.1015625 C65.40054688 86.12154297 64.67609375 86.14152344 63.9296875 86.16210938 C60.82695885 86.15924708 58.66716146 86.06115341 56.125 84.19921875 C55.125 81.6640625 55.125 81.6640625 55.125 72.6640625 C30.705 72.6640625 6.285 72.6640625 -18.875 72.6640625 C-18.875 75.9640625 -18.875 79.2640625 -18.875 82.6640625 C-23.415622 86.069529 -24.92634719 86.09617525 -30.4375 86.1015625 C-31.10974609 86.12154297 -31.78199219 86.14152344 -32.47460938 86.16210938 C-35.34704708 86.1592569 -37.32293741 86.13311176 -39.56030273 84.23217773 C-41.58480253 80.27754202 -41.34277022 76.46150798 -41.34375 72.078125 C-41.35136353 71.1435849 -41.35897705 70.2090448 -41.36682129 69.2461853 C-41.37761699 67.27092151 -41.38047754 65.29560066 -41.37597656 63.3203125 C-41.37500556 60.30631643 -41.41660496 57.2948777 -41.4609375 54.28125 C-41.46614576 52.35938029 -41.46883267 50.43750176 -41.46875 48.515625 C-41.48514526 47.61856842 -41.50154053 46.72151184 -41.51843262 45.79727173 C-41.46971471 41.3600931 -41.22691205 38.53756325 -38.33789062 35.04833984 C-37.52513672 34.26152832 -36.71238281 33.4747168 -35.875 32.6640625 C-36.72384766 32.24833984 -36.72384766 32.24833984 -37.58984375 31.82421875 C-38.32332031 31.46199219 -39.05679688 31.09976563 -39.8125 30.7265625 C-40.54339844 30.36691406 -41.27429688 30.00726563 -42.02734375 29.63671875 C-43.875 28.6640625 -43.875 28.6640625 -44.875 27.6640625 C-45.1875 25.2890625 -45.1875 25.2890625 -44.875 22.6640625 C-42.57664618 20.3440261 -41.40430153 19.67451415 -38.10546875 19.609375 C-37.10128906 19.66867188 -36.09710938 19.72796875 -35.0625 19.7890625 C-31.83540786 19.76394488 -31.83540786 19.76394488 -28.875 18.6640625 C-26.53435997 15.56358784 -25.12040716 12.55745166 -23.66796875 8.9609375 C-18.34389434 -0.8288638 -10.0155491 -0.08204075 0 0 Z " fill="#5BD2BF" transform="translate(264.875,134.3359375)"/>
<path d="M0 0 C2.48644975 2.1271598 4.90653122 4.31767592 7.32299805 6.52416992 C8.73776926 7.73472199 10.15420496 8.94333408 11.57299805 10.14916992 C12.82873099 11.26776715 14.07841016 12.39318539 15.32299805 13.52416992 C16.57016602 14.63791992 16.57016602 14.63791992 17.8425293 15.77416992 C18.68170898 16.55791992 19.52088867 17.34166992 20.38549805 18.14916992 C21.16022461 18.86331055 21.93495117 19.57745117 22.7331543 20.31323242 C24.32299805 22.52416992 24.32299805 22.52416992 24.1315918 25.23510742 C23.32299805 27.52416992 23.32299805 27.52416992 22.32299805 28.52416992 C19.9698625 28.59688734 17.61466136 28.6078786 15.26049805 28.58666992 C13.97014648 28.57764648 12.67979492 28.56862305 11.3503418 28.55932617 C10.35131836 28.54772461 9.35229492 28.53612305 8.32299805 28.52416992 C8.73291992 29.4703418 9.1428418 30.41651367 9.56518555 31.39135742 C13.85913071 41.74695279 15.68784583 51.3669178 16.32299805 62.52416992 C16.41709961 63.7797168 16.51120117 65.03526367 16.6081543 66.32885742 C17.05486332 76.98114961 14.48623684 86.46223235 11.32299805 96.52416992 C10.98526367 97.63276367 10.6475293 98.74135742 10.29956055 99.88354492 C4.03387607 118.06816303 -7.57651231 133.83450909 -19.67700195 148.52416992 C-20.50200195 149.54897461 -21.32700195 150.5737793 -22.17700195 151.62963867 C-24.32011162 154.28173688 -26.49146081 156.90696496 -28.67700195 159.52416992 C-29.08982422 160.02190918 -29.50264648 160.51964844 -29.92797852 161.0324707 C-36.06369278 168.42393996 -42.41369813 175.56694516 -48.9621582 182.59448242 C-51.69341737 185.5418844 -54.35104443 188.5387094 -56.9777832 191.57885742 C-58.97106623 193.86082282 -61.01193223 196.09645566 -63.05200195 198.33666992 C-67.78920647 203.57939369 -72.24928072 209.01830381 -76.67700195 214.52416992 C-80.35358187 210.88119677 -83.95679208 207.18185793 -87.48950195 203.39916992 C-87.9915918 202.87452148 -88.49368164 202.34987305 -89.01098633 201.80932617 C-92.67700195 197.86898285 -92.67700195 197.86898285 -92.67700195 194.52416992 C-91.20263672 193.30419922 -91.20263672 193.30419922 -89.1184082 192.09838867 C-88.34827393 191.63875732 -87.57813965 191.17912598 -86.78466797 190.70556641 C-85.94476318 190.21258057 -85.1048584 189.71959473 -84.23950195 189.21166992 C-74.27827644 183.14656513 -65.42894905 176.2088619 -56.67700195 168.52416992 C-56.11400391 168.03029785 -55.55100586 167.53642578 -54.97094727 167.02758789 C-51.46967256 163.93162263 -48.06085206 160.74866975 -44.67700195 157.52416992 C-43.95335449 156.8493457 -43.95335449 156.8493457 -43.21508789 156.16088867 C-34.24762137 147.77787191 -26.84448934 138.47121582 -19.67700195 128.52416992 C-19.20987793 127.88044434 -18.74275391 127.23671875 -18.26147461 126.57348633 C-8.78440199 113.38395871 -1.80439063 99.26421147 2.32299805 83.52416992 C2.49734375 82.92354736 2.67168945 82.3229248 2.85131836 81.70410156 C6.30564097 65.73948115 3.5263454 47.41779217 -2.67700195 32.52416992 C-6.77294485 34.32127627 -9.43723242 37.04376238 -12.5793457 40.16088867 C-14.67700195 41.52416992 -14.67700195 41.52416992 -17.3059082 41.35620117 C-19.67700195 40.52416992 -19.67700195 40.52416992 -21.67700195 38.52416992 C-22.20776367 36.28442383 -22.20776367 36.28442383 -22.60668945 33.50073242 C-22.76008789 32.48479004 -22.91348633 31.46884766 -23.0715332 30.42211914 C-23.23008789 29.3420459 -23.38864258 28.26197266 -23.55200195 27.14916992 C-25.80100214 10.74344685 -25.80100214 10.74344685 -33.67700195 -3.47583008 C-36.02032503 -4.97909394 -38.21248813 -6.23582312 -40.67700195 -7.47583008 C-41.88862572 -8.1785202 -43.09703918 -8.88677807 -44.30200195 -9.60083008 C-59.66601243 -18.13639145 -83.00993765 -18.46017596 -99.69262695 -14.15551758 C-108.73966541 -11.33339159 -117.13267867 -7.23365761 -124.67700195 -1.47583008 C-125.59610352 -0.80938477 -126.51520508 -0.14293945 -127.4621582 0.54370117 C-136.61982042 7.5347638 -143.35553313 16.3439687 -148.67700195 26.52416992 C-152.63700195 25.86416992 -156.59700195 25.20416992 -160.67700195 24.52416992 C-157.5891094 9.08470714 -141.25474228 -5.80702454 -128.50756836 -14.3425293 C-87.0259584 -40.02372874 -36.23008652 -29.87197717 0 0 Z " fill="#61D5C3" transform="translate(360.677001953125,95.475830078125)"/>
<path d="M0 0 C7.858125 -0.1546875 7.858125 -0.1546875 15.875 -0.3125 C17.50679199 -0.35802002 19.13858398 -0.40354004 20.81982422 -0.45043945 C29.95721334 -0.53721162 37.60714746 0.10214359 44.66772461 6.51464844 C48.75123419 11.04632195 49.41614207 15.58090444 49.34765625 21.48046875 C48.71259352 26.08288963 46.81893041 30.31798966 44 34 C41.32421875 35.28515625 41.32421875 35.28515625 39 36 C40.50665385 40.41234342 42.91303136 43.94583076 45.625 47.6875 C50 53.73332055 50 53.73332055 50 56 C44.68848538 56.88964575 39.20111281 57.78547518 34 56 C29.31482699 52.1211187 26.53482173 46.4230561 24 41 C24 40.34 24 39.68 24 39 C20.7 39 17.4 39 14 39 C14 44.28 14 49.56 14 55 C9.38 55 4.76 55 0 55 C0 36.85 0 18.7 0 0 Z " fill="#103260" transform="translate(209,354)"/>
<path d="M0 0 C4.640625 -0.061875 9.28125 -0.12375 14.0625 -0.1875 C16.23791382 -0.22846802 16.23791382 -0.22846802 18.45727539 -0.27026367 C30.22086205 -0.34624211 30.22086205 -0.34624211 36 3 C37.00933594 3.51240234 37.00933594 3.51240234 38.0390625 4.03515625 C43.3679642 7.48712952 46.06850292 12.00039403 48 18 C49.23853139 25.62674594 47.70931444 32.27686758 44 39 C39.77625025 44.43053539 32.85463767 48.77947998 26 50 C22.34139985 50.26341921 18.68324552 50.4437564 15.01953125 50.62109375 C13.52486328 50.80865234 13.52486328 50.80865234 12 51 C11.67 51.66 11.34 52.32 11 53 C10.34 53 9.68 53 9 53 C9 52.01 9 51.02 9 50 C6.03 50 3.06 50 0 50 C0 33.5 0 17 0 0 Z " fill="#2EADA2" transform="translate(274,425)"/>
<path d="M0 0 C13 0 13 0 16.21875 2.2109375 C16.9715625 3.25507813 17.724375 4.29921875 18.5 5.375 C18.92450439 5.93920654 19.34900879 6.50341309 19.78637695 7.0847168 C21.23294694 9.02899215 22.61285161 11.01295437 24 13 C25.18771521 14.62639981 26.37929655 16.24998157 27.57421875 17.87109375 C30.77078827 22.21200426 33.87744165 26.6015576 37 31 C37.33 20.77 37.66 10.54 38 0 C42.62 0 47.24 0 52 0 C52 18.48 52 36.96 52 56 C39 56 39 56 35.4921875 53.24609375 C34.57697072 52.00707707 33.70541317 50.73488123 32.875 49.4375 C32.39691895 48.77089355 31.91883789 48.10428711 31.42626953 47.41748047 C30.42647196 46.01697689 29.44464471 44.6034841 28.48046875 43.17822266 C26.50733611 40.27514063 24.43149851 37.45370402 22.34814453 34.62915039 C21.38122513 33.31369773 20.42351117 31.99141856 19.47607422 30.66186523 C17.21245089 27.31460208 17.21245089 27.31460208 14 25 C14 35.23 14 45.46 14 56 C9.38 56 4.76 56 0 56 C0 37.52 0 19.04 0 0 Z " fill="#103461" transform="translate(355,354)"/>
<path d="M0 0 C4.640625 -0.04125 9.28125 -0.0825 14.0625 -0.125 C15.51277588 -0.14320801 16.96305176 -0.16141602 18.45727539 -0.18017578 C20.19738892 -0.18766846 20.19738892 -0.18766846 21.97265625 -0.1953125 C23.15093994 -0.20578613 24.32922363 -0.21625977 25.54321289 -0.22705078 C31.96843451 0.19497451 36.97125428 1.97700343 42 6 C46.91052321 12.37040849 47.84264044 18.09579529 47 26 C45.63978086 30.55479094 43.7930862 33.34484183 40.125 36.375 C33.95884305 39.58140162 28.94354544 40.27523914 22.125 40.125 C20.949375 40.11146484 20.949375 40.11146484 19.75 40.09765625 C17.83319945 40.07428063 15.91655809 40.03841653 14 40 C14 44.95 14 49.9 14 55 C9.38 55 4.76 55 0 55 C0 36.85 0 18.7 0 0 Z " fill="#0F3160" transform="translate(95,354)"/>
<path d="M0 0 C1.39456452 0.00667256 2.78911118 0.01863093 4.18359375 0.03515625 C5.2499707 0.04192383 5.2499707 0.04192383 6.33789062 0.04882812 C8.09899388 0.06064761 9.86005411 0.07858362 11.62109375 0.09765625 C16.90697771 11.68388674 22.04744531 23.32772816 27.05859375 35.03515625 C27.4523822 35.95451965 27.4523822 35.95451965 27.85412598 36.89245605 C29.45144213 40.62402867 31.04798339 44.35581066 32.62109375 48.09765625 C33.00273682 48.98267822 33.38437988 49.8677002 33.77758789 50.77954102 C34.62109375 53.09765625 34.62109375 53.09765625 34.62109375 56.09765625 C32.1817515 56.23267519 29.74985271 56.33169522 27.30859375 56.41015625 C26.61830078 56.45205078 25.92800781 56.49394531 25.21679688 56.53710938 C23.1953125 56.5859375 23.1953125 56.5859375 19.62109375 56.09765625 C17.11332483 53.13021482 16.57207854 50.90159541 15.62109375 47.09765625 C7.70109375 46.76765625 -0.21890625 46.43765625 -8.37890625 46.09765625 C-9.36890625 49.06765625 -10.35890625 52.03765625 -11.37890625 55.09765625 C-12.37890625 56.09765625 -12.37890625 56.09765625 -15.7578125 56.1953125 C-17.15237702 56.18863994 -18.54692368 56.17668157 -19.94140625 56.16015625 C-21.0077832 56.15338867 -21.0077832 56.15338867 -22.09570312 56.14648438 C-23.85680638 56.13466489 -25.61786661 56.11672888 -27.37890625 56.09765625 C-24.68731642 47.16279227 -20.80974484 38.78602238 -17.00390625 30.28515625 C-15.68159092 27.32120188 -14.36182119 24.35612162 -13.04296875 21.390625 C-12.72587952 20.67921356 -12.40879028 19.96780212 -12.08209229 19.23483276 C-9.72662362 13.93238038 -7.48084368 8.59393396 -5.30224609 3.21606445 C-3.84127941 -0.13581495 -3.93875026 0.11383671 0 0 Z " fill="#123562" transform="translate(167.37890625,353.90234375)"/>
<path d="M0 0 C4.62 0 9.24 0 14 0 C14 7.26 14 14.52 14 22 C14.66 22 15.32 22 16 22 C16.26425781 21.40703125 16.52851563 20.8140625 16.80078125 20.203125 C18.04370425 17.91970946 19.30401646 16.52573277 21.1875 14.75 C25.88218108 10.19282004 30.36461829 5.45307256 34 0 C35.87939453 -0.34057617 35.87939453 -0.34057617 38.1328125 -0.29296875 C38.93847656 -0.28330078 39.74414062 -0.27363281 40.57421875 -0.26367188 C41.83685547 -0.2259668 41.83685547 -0.2259668 43.125 -0.1875 C43.97449219 -0.17396484 44.82398438 -0.16042969 45.69921875 -0.14648438 C47.79974837 -0.11108219 49.89995293 -0.05727401 52 0 C50.66107286 2.9896871 49.19457518 5.03653522 46.84765625 7.3125 C46.23599609 7.91320312 45.62433594 8.51390625 44.99414062 9.1328125 C44.35669922 9.74898438 43.71925781 10.36515625 43.0625 11 C38.36502884 15.487823 38.36502884 15.487823 34.18359375 20.4375 C33.79300781 20.953125 33.40242188 21.46875 33 22 C32.34 22 31.68 22 31 22 C33.73217166 26.8197817 36.98904955 31.21951118 40.25 35.6875 C41.4158446 37.29392258 42.58121252 38.90069121 43.74609375 40.5078125 C44.30538574 41.27899414 44.86467773 42.05017578 45.44091797 42.84472656 C47.4143989 45.57286463 49.37089902 48.31156637 51.3125 51.0625 C51.84488281 51.81660156 52.37726563 52.57070313 52.92578125 53.34765625 C54 55 54 55 54 56 C47.97792708 57.22899447 41.87042281 58.30119625 36 56 C30.48284562 51.02825362 26.85987614 44.29996677 23.34008789 37.8359375 C22.89785889 37.23007812 22.45562988 36.62421875 22 36 C18.97672555 35.71508318 18.97672555 35.71508318 16.859375 37.484375 C14.31845878 40.92208517 14.33013818 44.1265262 14.25 48.25 C14.22035156 48.99507813 14.19070313 49.74015625 14.16015625 50.5078125 C14.0897657 52.33796672 14.04258168 54.16898769 14 56 C9.38 56 4.76 56 0 56 C0 37.52 0 19.04 0 0 Z " fill="#103362" transform="translate(268,354)"/>
<path d="M0 0 C1.86730019 -0.01891296 1.86730019 -0.01891296 3.77232361 -0.03820801 C5.12759976 -0.03104737 6.48287073 -0.02284317 7.83813477 -0.01367188 C9.23291799 -0.01636785 10.62769939 -0.02025115 12.0224762 -0.02526855 C14.94371458 -0.03116076 17.86446317 -0.02261179 20.78564453 -0.00390625 C24.5228582 0.01886304 28.2589215 0.00577293 31.9960928 -0.01819611 C34.87613015 -0.0326803 37.75589676 -0.02803596 40.63594246 -0.01768494 C42.01339925 -0.01502374 43.39088092 -0.01826607 44.76830864 -0.02760315 C46.69709655 -0.03780743 48.62597103 -0.01948568 50.5546875 0 C51.65070786 0.00318237 52.74672821 0.00636475 53.8759613 0.00964355 C57.55823033 0.64022396 59.18764234 1.93287296 61.84204102 4.51757812 C63.24773607 6.83918865 64.4466734 9.01796184 65.59204102 11.45507812 C66.04643555 12.36676758 66.04643555 12.36676758 66.51000977 13.296875 C68.21022913 16.79932688 69.06547927 19.63476939 69.84204102 23.51757812 C40.80204102 23.51757812 11.76204102 23.51757812 -18.15795898 23.51757812 C-14.72703793 13.22481497 -14.72703793 13.22481497 -12.72045898 9.20507812 C-12.32987305 8.40457031 -11.93928711 7.6040625 -11.53686523 6.77929688 C-8.39917888 1.63278016 -6.0784225 0.01766195 0 0 Z " fill="#F7FCFB" transform="translate(257.157958984375,140.482421875)"/>
<path d="M0 0 C3.125 2.25 3.125 2.25 5 4 C3.33248852 7.94139078 0.77289351 10.7892812 -2 14 C-4.59456139 13.50104589 -6.27639559 12.83146611 -8.5625 11.4375 C-13.42052173 9.40596364 -17.8041189 9.30412307 -23 10 C-27.43118719 12.13646525 -30.2290203 14.37577522 -32 19 C-32.80905992 26.34896098 -32.26663146 31.88120381 -27.5625 37.8125 C-24.39786441 40.21762305 -20.78930497 40.13661932 -16.9375 40.125 C-15.65166016 40.12886719 -15.65166016 40.12886719 -14.33984375 40.1328125 C-11.84435799 40.09365135 -11.84435799 40.09365135 -9 39 C-8.67 34.05 -8.34 29.1 -8 24 C-3.71 24 0.58 24 5 24 C5 31.59 5 39.18 5 47 C3.123125 47.969375 1.24625 48.93875 -0.6875 49.9375 C-2.27111328 50.75541016 -2.27111328 50.75541016 -3.88671875 51.58984375 C-11.64295308 55.1030189 -21.24150686 55.51001363 -29.3359375 52.94140625 C-37.20145525 49.2860208 -43.18716379 44.36825685 -46.9375 36.4375 C-49.31397978 28.87461466 -49.66984565 19.20382126 -46 12.0625 C-35.43560761 -3.66538755 -17.23017442 -9.98068812 0 0 Z " fill="#123461" transform="translate(465,357)"/>
<path d="M0 0 C6.7134375 -0.0928125 6.7134375 -0.0928125 13.5625 -0.1875 C14.96056885 -0.21481201 16.3586377 -0.24212402 17.79907227 -0.27026367 C26.99263737 -0.33179671 33.09032491 0.48516348 40 7 C42.92276301 11.69072804 42.48158255 16.65598718 42 22 C40.19415021 27.73622875 36.88198262 29.86816209 32 33 C33.934683 37.40087232 36.9608553 40.99632411 39.8984375 44.75390625 C43 48.7919795 43 48.7919795 43 51 C39.35977871 51.97588911 36.61493652 52.15287165 33 51 C28.78765687 47.11559767 25.79047652 41.95161153 23 37 C23 36.34 23 35.68 23 35 C18.71 35 14.42 35 10 35 C10 40.28 10 45.56 10 51 C6.7 51 3.4 51 0 51 C0 34.17 0 17.34 0 0 Z " fill="#36AEA5" transform="translate(379,424)"/>
<path d="M0 0 C3.63 0.66 7.26 1.32 11 2 C11.02578125 3.34191406 11.0515625 4.68382812 11.078125 6.06640625 C11.39046532 17.318987 12.37542997 27.27423154 16 38 C16.33773437 39.05960938 16.67546875 40.11921875 17.0234375 41.2109375 C23.68305281 60.33961977 36.54229896 75.96936597 49.5546875 91.125 C56 98.7028754 56 98.7028754 56 101 C49.81407703 105.00265604 49.81407703 105.00265604 46.60546875 104.9921875 C42.91618522 103.58727293 40.92613696 101.04488118 38.5 98.0625 C37.98518066 97.4427832 37.47036133 96.82306641 36.93994141 96.18457031 C16.94188799 71.76729074 -0.59597737 44.87243875 -0.125 12.375 C-0.11597656 11.18003906 -0.10695312 9.98507813 -0.09765625 8.75390625 C-0.07431179 5.83584931 -0.03844959 2.917897 0 0 Z " fill="#42AFBE" transform="translate(190,150)"/>
<path d="M0 0 C8 0 8 0 10.72265625 2.30859375 C11.49480469 3.34113281 12.26695312 4.37367188 13.0625 5.4375 C13.4853125 5.98736572 13.908125 6.53723145 14.34375 7.10375977 C15.58251712 8.72069915 16.79190559 10.36001682 18 12 C19.16325388 13.48185207 20.32953502 14.96133711 21.5 16.4375 C22.655 17.943125 23.81 19.44875 25 21 C28.3 25.29 31.6 29.58 35 34 C35.33 22.78 35.66 11.56 36 0 C38.97 0 41.94 0 45 0 C45 16.83 45 33.66 45 51 C37 51 37 51 34.41796875 48.6484375 C33.68191406 47.56820312 32.94585937 46.48796875 32.1875 45.375 C31.3453218 44.18118129 30.5015112 42.98851284 29.65625 41.796875 C29.01042969 40.86198242 29.01042969 40.86198242 28.3515625 39.90820312 C26.08967498 36.71475788 23.63187899 33.67953918 21.1875 30.625 C18.4574561 27.19472883 15.80609869 23.74736771 13.30078125 20.1484375 C11.36141986 16.98975612 11.36141986 16.98975612 9 16 C9 27.55 9 39.1 9 51 C6.03 51 3.06 51 0 51 C0 34.17 0 17.34 0 0 Z " fill="#30ADA4" transform="translate(216,424)"/>
<path d="M0 0 C12.54 0 25.08 0 38 0 C38 2.64 38 5.28 38 8 C28.1 8 18.2 8 8 8 C8 12.29 8 16.58 8 21 C16.58 21 25.16 21 34 21 C34 23.64 34 26.28 34 29 C25.75 29 17.5 29 9 29 C9 33.62 9 38.24 9 43 C18.57 43 28.14 43 38 43 C38 45.64 38 48.28 38 51 C25.46 51 12.92 51 0 51 C0 34.17 0 17.34 0 0 Z " fill="#38B1A6" transform="translate(332,424)"/>
<path d="M0 0 C4.95 0 9.9 0 15 0 C15 18.48 15 36.96 15 56 C10.05 56 5.1 56 0 56 C0 37.52 0 19.04 0 0 Z " fill="#153863" transform="translate(327,354)"/>
<path d="M0 0 C18 0 18 0 26 4 C30.69446239 9.05557488 31.35693065 12.3582678 31.27734375 19.10546875 C30.86766152 23.38116642 29.6223363 26.59978412 27 30 C22.51512446 33.56959482 19.00950537 35.1450653 13.3125 35.0625 C12.10013672 35.04896484 12.10013672 35.04896484 10.86328125 35.03515625 C10.24839844 35.02355469 9.63351562 35.01195312 9 35 C10.38736126 31.84375314 12.00392708 29.80136567 14.5 27.4375 C16.72096733 25.32475777 18.27742417 23.58386374 20 21 C20.66 21 21.32 21 22 21 C22.33 19.68 22.66 18.36 23 17 C21.35 17 19.7 17 18 17 C18.67219939 13.19087013 19.75360701 9.65811275 21 6 C19.84371094 7.17369141 19.84371094 7.17369141 18.6640625 8.37109375 C17.65117427 9.39336057 16.63814616 10.41548881 15.625 11.4375 C14.86316406 12.2119043 14.86316406 12.2119043 14.0859375 13.00195312 C10.2265625 16.88671875 10.2265625 16.88671875 8 18 C10.475 18.99 10.475 18.99 13 20 C12.52412884 26.02770138 9.80277043 30.76678289 7 36 C4.69 36 2.38 36 0 36 C0 24.12 0 12.24 0 0 Z " fill="#F4FAF8" transform="translate(282,432)"/>
<path d="M0 0 C11.88 0 23.76 0 36 0 C36 1.98 36 3.96 36 6 C26.76 6 17.52 6 8 6 C8 11.28 8 16.56 8 22 C16.58 22 25.16 22 34 22 C34 24.31 34 26.62 34 29 C21.625 29.495 21.625 29.495 9 30 C8.67 36.27 8.34 42.54 8 49 C5.36 49 2.72 49 0 49 C0 32.83 0 16.66 0 0 Z " fill="#24ACA2" transform="translate(149,425)"/>
<path d="M0 0 C2.97 0 5.94 0 9 0 C9 16.83 9 33.66 9 51 C6.03 51 3.06 51 0 51 C0 34.17 0 17.34 0 0 Z " fill="#36AEA4" transform="translate(194,424)"/>
<path d="M0 0 C17.50556439 -0.57869634 17.50556439 -0.57869634 23 4 C25.33909307 7.5086396 25.41291057 8.87089433 25 13 C23.70771725 15.99265479 22.8116403 17.55421271 19.9375 19.1328125 C15.96577239 20.30531719 12.30013905 20.21393469 8.1875 20.125 C4.1346875 20.063125 4.1346875 20.063125 0 20 C0 13.4 0 6.8 0 0 Z " fill="#F2FAF7" transform="translate(388,431)"/>
<path d="M0 0 C1.23556641 0.01740234 1.23556641 0.01740234 2.49609375 0.03515625 C3.32238281 0.04417969 4.14867187 0.05320313 5 0.0625 C5.63808594 0.07410156 6.27617187 0.08570313 6.93359375 0.09765625 C6.93359375 0.75765625 6.93359375 1.41765625 6.93359375 2.09765625 C7.55234375 2.36578125 8.17109375 2.63390625 8.80859375 2.91015625 C10.93359375 4.09765625 10.93359375 4.09765625 12.93359375 7.09765625 C13.45766203 11.02816839 13.08149462 12.82298321 11.18359375 16.34765625 C7.99509585 20.24470923 6.47128208 20.92990843 1.49609375 21.47265625 C-2.69391564 21.03160263 -4.16029925 20.08679488 -7.06640625 17.09765625 C-9.10280858 14.41330772 -9.06634957 13.09453886 -9.00390625 9.66015625 C-7.89984619 5.46472803 -6.32915056 3.87098891 -3.06640625 1.09765625 C-2.06640625 0.09765625 -2.06640625 0.09765625 0 0 Z " fill="#98E7DA" transform="translate(276.06640625,231.90234375)"/>
<path d="M0 0 C2.75569447 2.18159145 4.43588747 3.87177494 6 7 C6.57884232 14.06187625 6.57884232 14.06187625 4.1875 17.9375 C1.38006596 20.58450924 -0.50376653 20.94382263 -4.3125 21.375 C-9.20301701 20.87765929 -10.57084492 19.42915508 -14 16 C-15.53214888 12.93570224 -15.22938548 10.3834358 -15 7 C-11.8046425 0.15280536 -7.12433526 -1.26238221 0 0 Z " fill="#82E1CD" transform="translate(204,125)"/>
<path d="M0 0 C2.93565908 2.4563678 4.60586675 4.19824802 5.4375 8 C5.66132805 11.69316277 5.10801877 13.83077059 3.125 16.9375 C-0.36158203 20.3215355 -3.03592714 20.38966392 -7.73828125 20.359375 C-11.32520929 19.78943134 -12.86838894 17.79773951 -15 15 C-16.57455739 11.85088521 -16.34799118 9.47991184 -16 6 C-11.90672251 -0.87304056 -7.43243609 -2.0503272 0 0 Z " fill="#94EAD7" transform="translate(288,99)"/>
<path d="M0 0 C2.206875 -0.061875 4.41375 -0.12375 6.6875 -0.1875 C8.54955078 -0.23970703 8.54955078 -0.23970703 10.44921875 -0.29296875 C14.21666932 0.01787701 16.02794917 0.7227143 19 3 C20.54586876 6.09173752 20.29359521 8.59429552 20 12 C18.49609375 14.2109375 18.49609375 14.2109375 16 16 C13.07545478 16.29362904 10.64493292 16.38195943 7.75 16.25 C5.1925 16.1675 2.635 16.085 0 16 C0 10.72 0 5.44 0 0 Z " fill="#EEF1F4" transform="translate(223,366)"/>
<path d="M0 0 C12.41836527 -0.40939666 12.41836527 -0.40939666 17 3 C18.54586876 6.09173752 18.29359521 8.59429552 18 12 C16.13291495 14.36497439 14.67938569 15.66030715 12 17 C9.95944995 17.07065617 7.91665743 17.08421976 5.875 17.0625 C2.966875 17.0315625 2.966875 17.0315625 0 17 C0 11.39 0 5.78 0 0 Z " fill="#ECEFF2" transform="translate(109,366)"/>
<path d="M0 0 C7.29736318 0.1376861 14.07890161 2.71786164 20 7 C20.84765625 9.703125 20.84765625 9.703125 21 12 C16.01837144 15.32108571 10.35727474 14.4250487 4.625 13.3125 C1 12 1 12 -1.0625 9.75 C-2.20354018 6.40294881 -1.92263054 4.38297866 -1 1 C-0.67 0.67 -0.34 0.34 0 0 Z " fill="#F0FAF8" transform="translate(234,175)"/>
<path d="M0 0 C1 1 1 1 1.0625 4.5625 C1.041875 5.696875 1.02125 6.83125 1 8 C-0.98 8.99 -0.98 8.99 -3 10 C-3 10.66 -3 11.32 -3 12 C-8.61 12 -14.22 12 -20 12 C-20.33 10.35 -20.66 8.7 -21 7 C-14.55759297 1.0289886 -8.70459887 -0.45023787 0 0 Z " fill="#F1FBF9" transform="translate(333,176)"/>
<path d="M0 0 C0 0.99 0 1.98 0 3 C-1.88332031 3.58007812 -1.88332031 3.58007812 -3.8046875 4.171875 C-14.08519 7.27750224 -14.08519 7.27750224 -24.125 11.0625 C-29.28729783 13.24619766 -34.63957854 14.72870043 -40.02587891 16.25024414 C-43.03461152 17.10418611 -45.92298364 17.96868215 -48.82421875 19.1484375 C-51 20 -51 20 -54 20 C-53.72363281 18.09765625 -53.72363281 18.09765625 -53 16 C-50.21823612 14.78525595 -47.64187011 13.85745449 -44.75 13 C-43.51817993 12.61328125 -43.51817993 12.61328125 -42.26147461 12.21875 C-39.84543164 11.46366283 -37.42372903 10.72997015 -35 10 C-33.87207031 9.649375 -32.74414062 9.29875 -31.58203125 8.9375 C-29.56096983 8.31000357 -27.53748444 7.69026419 -25.51171875 7.078125 C-22.69419529 6.21312336 -19.88726209 5.3254445 -17.08203125 4.421875 C-15.79220337 4.00808594 -15.79220337 4.00808594 -14.47631836 3.5859375 C-12.76899417 3.03728635 -11.06273407 2.48531049 -9.35766602 1.9296875 C-8.57705811 1.67960937 -7.7964502 1.42953125 -6.9921875 1.171875 C-6.29464355 0.9459668 -5.59709961 0.72005859 -4.87841797 0.48730469 C-3 0 -3 0 0 0 Z " fill="#5AC8C9" transform="translate(268,113)"/>
<path d="M0 0 C0.66 0.33 1.32 0.66 2 1 C-0.26813442 6.59556238 -5.29750448 9.50631834 -10 13 C-10.63035156 13.47953125 -11.26070312 13.9590625 -11.91015625 14.453125 C-20.44495807 20.38059176 -31.66262641 23.90678716 -42 23 C-42 22.34 -42 21.68 -42 21 C-40.92298828 20.84917969 -40.92298828 20.84917969 -39.82421875 20.6953125 C-25.03609247 18.00656227 -11.02025882 10.14203768 0 0 Z " fill="#46B5C8" transform="translate(265,251)"/>
<path d="M0 0 C0.66 0 1.32 0 2 0 C2.81289053 2.27069422 3.62532738 4.54154901 4.4375 6.8125 C4.66759766 7.45509766 4.89769531 8.09769531 5.13476562 8.75976562 C6.11417851 11.49928283 7.07995362 14.23986086 8 17 C3.71 17 -0.58 17 -5 17 C-4.26045106 12.56270636 -3.49072221 9.23352326 -1.9375 5.125 C-1.57527344 4.15820312 -1.21304688 3.19140625 -0.83984375 2.1953125 C-0.56269531 1.47085937 -0.28554687 0.74640625 0 0 Z " fill="#E4E9ED" transform="translate(170,371)"/>
<path d="M0 0 C1.051875 0.01160156 1.051875 0.01160156 2.125 0.0234375 C2.82625 0.01570312 3.5275 0.00796875 4.25 0 C6.125 0.3984375 6.125 0.3984375 8.125 3.3984375 C7.9375 6.9609375 7.9375 6.9609375 7.125 10.3984375 C4.125 12.3984375 4.125 12.3984375 1.0625 12.1484375 C-1.875 11.3984375 -1.875 11.3984375 -3.875 9.3984375 C-4.59182341 0.97576247 -4.59182341 0.97576247 0 0 Z " fill="#F6FDFC" transform="translate(275.875,236.6015625)"/>
<path d="M0 0 C2.5625 0.5 2.5625 0.5 4.9375 2.0625 C6.5625 4.5 6.5625 4.5 6.4375 8.1875 C6.14875 9.280625 5.86 10.37375 5.5625 11.5 C2.54925805 13.00662097 -0.12036377 12.67770373 -3.4375 12.5 C-5.4375 10.5 -5.4375 10.5 -5.75 7.625 C-5.32129286 3.33792865 -4.43029768 0.90877901 0 0 Z " fill="#F6FDFB" transform="translate(199.4375,128.5)"/>
<path d="M0 0 C1.32 0.66 2.64 1.32 4 2 C4 2.66 4 3.32 4 4 C-2.01668262 9.0821766 -8.90865892 12.67826655 -16 16 C-16.97066406 16.55880859 -16.97066406 16.55880859 -17.9609375 17.12890625 C-20.51187781 18.21867577 -22.48793447 18.19768593 -25.25 18.125 C-26.14203125 18.10695313 -27.0340625 18.08890625 -27.953125 18.0703125 C-28.62859375 18.04710937 -29.3040625 18.02390625 -30 18 C-27.003413 16.46686247 -23.95851646 15.09847659 -20.875 13.75 C-13.09547481 10.21385218 -5.71164327 6.4731957 0 0 Z " fill="#53B8C8" transform="translate(271,265)"/>
<path d="M0 0 C1.051875 0.12375 2.10375 0.2475 3.1875 0.375 C3.1875 1.365 3.1875 2.355 3.1875 3.375 C0.75 5 0.75 5 -1.8125 6.375 C-3.12439416 7.47298661 -3.12439416 7.47298661 -3.0625 10.1875 C-2.78691197 13.70124742 -2.04664754 14.76849453 0.1875 17.375 C0.1875 18.035 0.1875 18.695 0.1875 19.375 C-2.0625 19.75 -2.0625 19.75 -4.8125 19.375 C-7.63579153 16.24648776 -8.705842 14.03864975 -9.375 9.875 C-8.44204858 4.06996895 -6.25428031 0.61517511 0 0 Z " fill="#89E7D1" transform="translate(280.8125,98.625)"/>
<path d="M0 0 C1.875 1.1875 1.875 1.1875 3 3 C3.42317323 5.82115488 3.38718434 7.33950907 1.9375 9.8125 C-1.05550269 11.646921 -3.57816663 11.31107576 -7 11 C-9 9 -9 9 -9.3125 6.0625 C-9 3 -9 3 -7.875 1.125 C-5.11909116 -0.52854531 -3.14924548 -0.39365568 0 0 Z " fill="#F9FEFC" transform="translate(286,103)"/>
<path d="M0 0 C1.67542976 0.28604898 3.34385343 0.61781233 5 1 C5 1.66 5 2.32 5 3 C1.40003498 4.67585347 -2.20562136 6.33908513 -5.8125 8 C-6.83666016 8.47695312 -7.86082031 8.95390625 -8.91601562 9.4453125 C-10.39038086 10.12207031 -10.39038086 10.12207031 -11.89453125 10.8125 C-12.80050049 11.23144531 -13.70646973 11.65039062 -14.63989258 12.08203125 C-17 13 -17 13 -20 13 C-20 12.01 -20 11.02 -20 10 C-19.42967041 9.7326001 -18.85934082 9.4652002 -18.27172852 9.18969727 C-15.70093338 7.98285833 -13.13170278 6.7727249 -10.5625 5.5625 C-9.66466797 5.14162109 -8.76683594 4.72074219 -7.84179688 4.28710938 C-6.98779297 3.88427734 -6.13378906 3.48144531 -5.25390625 3.06640625 C-4.46314697 2.69459229 -3.6723877 2.32277832 -2.85766602 1.93969727 C-1.03502006 1.13895211 -1.03502006 1.13895211 0 0 Z " fill="#49B6C1" transform="translate(316,91)"/>
<path d="M0 0 C1.32 0 2.64 0 4 0 C2.40376856 4.39383706 0.21975667 8.28995807 -2.125 12.3125 C-2.49753906 12.95767578 -2.87007813 13.60285156 -3.25390625 14.26757812 C-4.16632213 15.84675945 -5.08275509 17.42361864 -6 19 C-7.32 19 -8.64 19 -10 19 C-6.82976438 12.56442169 -3.65066187 6.17804317 0 0 Z " fill="#51B7C5" transform="translate(295,211)"/>
<path d="M0 0 C2.5625 1.375 2.5625 1.375 4 3 C4 3.66 4 4.32 4 5 C2.34385343 5.38218767 0.67542976 5.71395102 -1 6 C-1.33 5.67 -1.66 5.34 -2 5 C-4.41583753 4.66625723 -4.41583753 4.66625723 -7 5 C-7.515625 5.515625 -8.03125 6.03125 -8.5625 6.5625 C-9.036875 7.036875 -9.51125 7.51125 -10 8 C-12.1875 7.6875 -12.1875 7.6875 -14 7 C-11.47625425 -0.37710297 -7.13327358 -0.86268832 0 0 Z " fill="#95E6D4" transform="translate(204,125)"/>
<path d="M0 0 C0.66 0.33 1.32 0.66 2 1 C0.4941612 4.75197825 -1.66542374 6.64319773 -4.8125 9.125 C-5.66457031 9.80820312 -6.51664062 10.49140625 -7.39453125 11.1953125 C-9.9067577 12.93541538 -12.07883133 14.117202 -15 15 C-15.66 14.67 -16.32 14.34 -17 14 C-17 13.34 -17 12.68 -17 12 C-15.33861059 10.82638506 -13.61820517 9.73574737 -11.875 8.6875 C-7.59224996 6.0460103 -3.75029626 3.34485883 0 0 Z " fill="#4FB9C9" transform="translate(265,251)"/>
<path d="M0 0 C0.33 0.99 0.66 1.98 1 3 C-0.3125 5.4375 -0.3125 5.4375 -2 8 C-2.68096422 9.32608822 -3.35330586 10.65686601 -4 12 C-4 11.01 -4 10.02 -4 9 C-5.98 9.99 -5.98 9.99 -8 11 C-7.67 11.99 -7.34 12.98 -7 14 C-8.8125 14.625 -8.8125 14.625 -11 15 C-11.99 14.34 -12.98 13.68 -14 13 C-13.32453125 12.39671875 -12.6490625 11.7934375 -11.953125 11.171875 C-11.06109375 10.37265625 -10.1690625 9.5734375 -9.25 8.75 C-8.36828125 7.96109375 -7.4865625 7.1721875 -6.578125 6.359375 C-4.32133835 4.29407328 -2.14260074 2.18264936 0 0 Z " fill="#3DB6A7" transform="translate(303,437)"/>
<path d="M0 0 C0.33 0 0.66 0 1 0 C1 1.65 1 3.3 1 5 C1.99 5.33 2.98 5.66 4 6 C3.50628906 6.48210937 3.01257813 6.96421875 2.50390625 7.4609375 C1.86324219 8.09257812 1.22257812 8.72421875 0.5625 9.375 C-0.07558594 10.00148438 -0.71367187 10.62796875 -1.37109375 11.2734375 C-3.07882176 12.91723061 -3.07882176 12.91723061 -4 15 C2.93 14.01 2.93 14.01 10 13 C9.67 13.66 9.34 14.32 9 15 C5.85069107 16.04976964 3.61185544 16.10131595 0.3125 16.0625 C-0.68136719 16.05347656 -1.67523438 16.04445313 -2.69921875 16.03515625 C-3.83810547 16.01775391 -3.83810547 16.01775391 -5 16 C-5.33 15.34 -5.66 14.68 -6 14 C-5.0390625 11.50390625 -5.0390625 11.50390625 -3.625 8.5625 C-2.26442584 5.70833464 -1.00046373 3.00139119 0 0 Z " fill="#47BBAF" transform="translate(295,452)"/>
<path d="M0 0 C1.32 0.66 2.64 1.32 4 2 C4 2.66 4 3.32 4 4 C1.91796875 5.76171875 1.91796875 5.76171875 -0.8125 7.6875 C-1.70582031 8.33074219 -2.59914063 8.97398437 -3.51953125 9.63671875 C-4.33808594 10.08660156 -5.15664063 10.53648437 -6 11 C-6.99 10.67 -7.98 10.34 -9 10 C-6.03 6.7 -3.06 3.4 0 0 Z " fill="#44B3C4" transform="translate(271,265)"/>
<path d="M0 0 C0 0.99 0 1.98 0 3 C-7.53404602 5.60838688 -13.99819339 7.54249536 -22 7 C-18.51095699 4.67397132 -14.96609994 3.58882418 -11 2.375 C-10.27554687 2.14554687 -9.55109375 1.91609375 -8.8046875 1.6796875 C-5.77088102 0.73931944 -3.19456412 0 0 0 Z " fill="#73D8CD" transform="translate(268,113)"/>
<path d="M0 0 C0.66 0.33 1.32 0.66 2 1 C-2.95 5.95 -7.9 10.9 -13 16 C-13 10.79628205 -8.49504984 7.5790344 -5 4 C-3.37707762 2.6137538 -1.7331451 1.24569804 0 0 Z " fill="#E4F5F0" transform="translate(233,95)"/>
<path d="M0 0 C0.66 0.33 1.32 0.66 2 1 C0.7156759 3.86503068 -0.41598787 6.15427705 -3 8 C-6.1875 8.1875 -6.1875 8.1875 -9 8 C-6.14723863 5.06799526 -3.34920216 2.35684596 0 0 Z " fill="#4DBBCA" transform="translate(265,251)"/>
<path d="M0 0 C-3.06246747 1.78409802 -5.22079273 2.22880021 -8.75 2.125 C-9.54921875 2.10695313 -10.3484375 2.08890625 -11.171875 2.0703125 C-11.77515625 2.04710937 -12.3784375 2.02390625 -13 2 C-13 1.34 -13 0.68 -13 0 C-11.58800422 -0.39222105 -10.17007236 -0.76311059 -8.75 -1.125 C-7.96109375 -1.33382813 -7.1721875 -1.54265625 -6.359375 -1.7578125 C-3.5796929 -2.04314411 -2.34112451 -1.44977894 0 0 Z " fill="#72C6D6" transform="translate(236,272)"/>
<path d="M0 0 C-0.99 0.33 -1.98 0.66 -3 1 C-2.67 1.66 -2.34 2.32 -2 3 C-4.90600261 4.25664978 -6.79604584 5 -10 5 C-9.8125 3.125 -9.8125 3.125 -9 1 C-5.6868424 -0.8804408 -3.58825658 -1.32898392 0 0 Z " fill="#72C6CA" transform="translate(224,128)"/>
<path d="M0 0 C0.33 0.99 0.66 1.98 1 3 C-2.63 6.63 -6.26 10.26 -10 14 C-10.66 13.67 -11.32 13.34 -12 13 C-11.27683594 12.29423828 -11.27683594 12.29423828 -10.5390625 11.57421875 C-9.90742188 10.95160156 -9.27578125 10.32898438 -8.625 9.6875 C-7.99851562 9.07261719 -7.37203125 8.45773437 -6.7265625 7.82421875 C-4.81913393 5.91187472 -4.81913393 5.91187472 -3 3 C-2.34 3 -1.68 3 -1 3 C-0.67 2.01 -0.34 1.02 0 0 Z " fill="#D7EFEB" transform="translate(305,450)"/>
<path d="M0 0 C-0.6875 2.4375 -0.6875 2.4375 -2 5 C-4.625 5.8125 -4.625 5.8125 -7 6 C-6.67 4.35 -6.34 2.7 -6 1 C-3 0 -3 0 0 0 Z " fill="#219F98" transform="translate(303,451)"/>
<path d="M0 0 C0.66 0.33 1.32 0.66 2 1 C1 4 1 4 -0.875 5.1875 C-3 6 -3 6 -6 6 C-6 5.01 -6 4.02 -6 3 C-4.03533587 1.93224776 -2.03144641 0.93446535 0 0 Z " fill="#70CCCD" transform="translate(302,98)"/>
<path d="M0 0 C0.33 0.66 0.66 1.32 1 2 C0.071875 3.1446875 0.071875 3.1446875 -0.875 4.3125 C-3.05597052 6.99625809 -3.05597052 6.99625809 -5 10 C-5.33 8.35 -5.66 6.7 -6 5 C-5.38125 4.731875 -4.7625 4.46375 -4.125 4.1875 C-1.7004767 3.04443152 -1.7004767 3.04443152 0 0 Z " fill="#CED6DB" transform="translate(254,385)"/>
<path d="M0 0 C0 0.66 0 1.32 0 2 C-1.65 2.66 -3.3 3.32 -5 4 C-5.99 3.01 -6.98 2.02 -8 1 C-4.93251126 -0.86240388 -3.40254489 -1.2151946 0 0 Z " fill="#67C1CF" transform="translate(250,265)"/>
<path d="M0 0 C0.99 0.66 1.98 1.32 3 2 C-0.82320557 3.42258812 -3.91281305 4.24042276 -8 4 C-7 2 -7 2 -3.625 0.75 C-1.830625 0.37875 -1.830625 0.37875 0 0 Z " fill="#4BBAC3" transform="translate(228,126)"/>
<path d="M0 0 C1.98 0 3.96 0 6 0 C6 0.66 6 1.32 6 2 C6.66 2 7.32 2 8 2 C7.67 3.32 7.34 4.64 7 6 C5.35 5.67 3.7 5.34 2 5 C2.99 4.67 3.98 4.34 5 4 C5 3.01 5 2.02 5 1 C3.35 1 1.7 1 0 1 C0 0.67 0 0.34 0 0 Z " fill="#A6EADB" transform="translate(279,98)"/>
<path d="M0 0 C0.33 0.99 0.66 1.98 1 3 C-0.8125 4.0625 -0.8125 4.0625 -3 5 C-3.99 4.67 -4.98 4.34 -6 4 C-2.25 0 -2.25 0 0 0 Z " fill="#51BFC9" transform="translate(308,96)"/>
<path d="M0 0 C-1 3 -1 3 -4 5 C-4.99 4.67 -5.98 4.34 -7 4 C-4.83989616 0.75984424 -3.8842653 0 0 0 Z " fill="#39AFC3" transform="translate(260,258)"/>
<path d="M0 0 C0.66 0.33 1.32 0.66 2 1 C1.34 2.32 0.68 3.64 0 5 C-1.65 5 -3.3 5 -5 5 C-3.35 3.35 -1.7 1.7 0 0 Z " fill="#59C4CD" transform="translate(265,251)"/>
</svg>
